<svg xmlns="http://www.w3.org/2000/svg" width="39" height="39" viewBox="0 0 39 39">
  <metadata><?xpacket begin="﻿" id="W5M0MpCehiHzreSzNTczkc9d"?>
<x:xmpmeta xmlns:x="adobe:ns:meta/" x:xmptk="Adobe XMP Core 5.6-c138 79.159824, 2016/09/14-01:09:01        ">
   <rdf:RDF xmlns:rdf="http://www.w3.org/1999/02/22-rdf-syntax-ns#">
      <rdf:Description rdf:about=""/>
   </rdf:RDF>
</x:xmpmeta>
                                                                                                    
                                                                                                    
                                                                                                    
                                                                                                    
                                                                                                    
                                                                                                    
                                                                                                    
                                                                                                    
                                                                                                    
                                                                                                    
                                                                                                    
                                                                                                    
                                                                                                    
                                                                                                    
                                                                                                    
                                                                                                    
                                                                                                    
                                                                                                    
                                                                                                    
                                                                                                    
                           
<?xpacket end="w"?></metadata>
<defs>
    <style>
      .cls-1 {
        fill: #c4a676;
        fill-rule: evenodd;
      }
    </style>
  </defs>
  <path id="Forma_1_copy_31" data-name="Forma 1 copy 31" class="cls-1" d="M16.915,38.234l-4.221-3.17L7.5,34.121a3.79,3.79,0,0,1-3.08-3.2L3.678,25.7,0.672,21.36A3.792,3.792,0,0,1,.759,16.92L3.93,12.7,4.875,7.511a3.79,3.79,0,0,1,3.2-3.078L13.3,3.692l4.342-3a3.793,3.793,0,0,1,4.442.086l4.221,3.17L31.5,4.888a3.789,3.789,0,0,1,3.081,3.2l0.741,5.224,3.006,4.337a3.8,3.8,0,0,1-.086,4.44l-3.173,4.218L34.128,31.5a3.794,3.794,0,0,1-3.2,3.077l-5.226.741-4.341,3A3.793,3.793,0,0,1,16.915,38.234Zm0.133-.961-4-3.007-4.928-.895a3.6,3.6,0,0,1-2.922-3.036l-0.7-4.956L1.637,21.264a3.6,3.6,0,0,1,.082-4.212l3.009-4,0.9-4.925a3.6,3.6,0,0,1,3.038-2.92l4.958-.7,4.119-2.85a3.6,3.6,0,0,1,4.214.082l4,3.008,4.928,0.895a3.6,3.6,0,0,1,2.923,3.036l0.7,4.956,2.852,4.115a3.6,3.6,0,0,1-.082,4.212l-3.01,4-0.9,4.925A3.6,3.6,0,0,1,30.339,33.8l-4.958.7-4.118,2.85A3.6,3.6,0,0,1,17.048,37.274ZM15.373,11.8l4.912,7.711-4.911,7.711h4.166l4.911-7.711L19.539,11.8H15.373Z"/>
</svg>
