<svg xmlns="http://www.w3.org/2000/svg" width="39" height="39" viewBox="0 0 39 39">
  <metadata><?xpacket begin="﻿" id="W5M0MpCehiHzreSzNTczkc9d"?>
<x:xmpmeta xmlns:x="adobe:ns:meta/" x:xmptk="Adobe XMP Core 5.6-c138 79.159824, 2016/09/14-01:09:01        ">
   <rdf:RDF xmlns:rdf="http://www.w3.org/1999/02/22-rdf-syntax-ns#">
      <rdf:Description rdf:about=""/>
   </rdf:RDF>
</x:xmpmeta>
                                                                                                    
                                                                                                    
                                                                                                    
                                                                                                    
                                                                                                    
                                                                                                    
                                                                                                    
                                                                                                    
                                                                                                    
                                                                                                    
                                                                                                    
                                                                                                    
                                                                                                    
                                                                                                    
                                                                                                    
                                                                                                    
                                                                                                    
                                                                                                    
                                                                                                    
                                                                                                    
                           
<?xpacket end="w"?></metadata>
<defs>
    <style>
      .cls-1 {
        fill: #c4a676;
        fill-rule: evenodd;
      }
    </style>
  </defs>
  <path id="Forma_1_copy_31" data-name="Forma 1 copy 31" class="cls-1" d="M38.234,22.085l-3.17,4.221L34.121,31.5a3.79,3.79,0,0,1-3.2,3.08l-5.224.742L21.36,38.328a3.792,3.792,0,0,1-4.439-.087L12.7,35.07l-5.191-.945a3.79,3.79,0,0,1-3.078-3.2L3.692,25.7l-3-4.342a3.793,3.793,0,0,1,.086-4.442l3.17-4.221L4.888,7.5a3.789,3.789,0,0,1,3.2-3.081l5.224-.741,4.337-3.006a3.8,3.8,0,0,1,4.44.086l4.218,3.173L31.5,4.872a3.794,3.794,0,0,1,3.077,3.2L35.316,13.3l3,4.341A3.793,3.793,0,0,1,38.234,22.085Zm-0.961-.133-3.007,4-0.895,4.928a3.6,3.6,0,0,1-3.036,2.922l-4.956.7-4.114,2.852a3.6,3.6,0,0,1-4.212-.082l-4-3.009-4.925-.9a3.6,3.6,0,0,1-2.92-3.038L4.5,25.378l-2.85-4.119a3.6,3.6,0,0,1,.082-4.214l3.008-4L5.638,8.113A3.6,3.6,0,0,1,8.673,5.19l4.956-.7,4.115-2.852a3.6,3.6,0,0,1,4.212.082l4,3.01,4.925,0.9A3.6,3.6,0,0,1,33.8,8.661l0.7,4.958,2.85,4.118A3.6,3.6,0,0,1,37.274,21.952ZM11.8,23.627l7.711-4.911,7.711,4.912V19.461L19.507,14.55,11.8,19.461v4.166Z"/>
</svg>
