<svg id="Layer_1" data-name="Layer 1" xmlns="http://www.w3.org/2000/svg" viewBox="0 0 708.84 70.73"><defs><style>.cls-1,.cls-10,.cls-8{fill:#7e7e7d;}.cls-1{stroke:#fff;stroke-width:0.2px;}.cls-1,.cls-2,.cls-3,.cls-6,.cls-7{stroke-miterlimit:10;}.cls-2,.cls-3,.cls-4,.cls-5,.cls-6,.cls-7{fill:none;stroke:#7e7e7d;}.cls-2{stroke-width:1px;}.cls-3,.cls-5{fill-rule:evenodd;}.cls-4,.cls-5{stroke-linecap:round;stroke-linejoin:round;}.cls-4,.cls-5,.cls-7{stroke-width:0.5px;}.cls-10,.cls-8{font-size:12px;font-family:TitilliumWeb-Regular, Titillium Web;}.cls-9{letter-spacing:-0.01em;}.cls-10{letter-spacing:-0.01em;}.cls-11{letter-spacing:0em;}.cls-12{letter-spacing:-0.01em;}.cls-13{letter-spacing:-0.01em;}.cls-14{letter-spacing:0em;}.cls-15{letter-spacing:0em;}.cls-16{letter-spacing:-0.01em;}.cls-17{letter-spacing:0em;}.cls-18{letter-spacing:0em;}</style></defs><title>all_diamonds</title><path class="cls-1" d="M39.66,310.09a22.52,22.52,0,0,0-1.73,8.48v.22a22.55,22.55,0,0,0,1.61,8.38h0a22.58,22.58,0,0,0,4.9,7.5h0a22.57,22.57,0,0,0,15.85,6.77h.31a22.6,22.6,0,0,0,14.68-5.4A13.74,13.74,0,0,0,77,334.31a35.15,35.15,0,0,0,4.43-6.47A22.48,22.48,0,0,0,83.28,319h0v-.19a22.6,22.6,0,0,0-6.49-15.87h0a22.58,22.58,0,0,0-16-6.8h-.18a22.67,22.67,0,0,0-15.14,5.82,13.75,13.75,0,0,0-1.61,1.77A35.67,35.67,0,0,0,39.66,310.09ZM68.58,327.9l-7.45,3-9.51-3.85-3.39-8.35,3.71-8.79,8.43-3.47,9.22,4.17,3.09,7.59Zm-.24.76-1.66,5.72-4.89-3.06Zm-8,2.61-6.2,2.8-2.25-6.22Zm9.72-21.09-2.54-6.54,8.69-.18-1.18,9Zm-.79-.36-8.13-3.68,5.77-2.4Zm-17-.68,2.17-5.54,5.21,2.51Zm-.78.32-6.08,2.37-.25-8.58,8.68.23Zm-.33.78-3.26,7.71-2.39-5.51Zm-3.27,9.25,3,7.33L45.34,325Zm3.26,8.07,2.4,6.62H45l.24-8.61Zm10,4,5.27,3.3-6.06,5.83-5.82-6.15Zm8-3.22,6.78-2.54-.2,8.94-8.37-.22Zm.31-.77L73,319l2.72,6.23ZM73,317.43,70.41,311l4.49,2Zm3.76-13.58a22,22,0,0,1,4.23,6.6l-5.35,2ZM67.63,303,70,298.86a22,22,0,0,1,5.77,4Zm-.59-.2-5.53-6a21.86,21.86,0,0,1,8,1.83Zm-.46.4-6.18,2.57-5.62-2.7,6-6.22Zm-12.22-.57-2-4.28A21.87,21.87,0,0,1,60,296.76Zm-.57.21-8.15-.21a21.93,21.93,0,0,1,6.13-4Zm-9,8.95L40.36,310a22.31,22.31,0,0,1,4.2-6.33Zm2.78,6.91-2.75,5.9-6.15-6L45,312.78Zm-3.2,15a21.94,21.94,0,0,1-4.14-6.46l4.37-1.65Zm9.11,1.09-2.07,4.06a22,22,0,0,1-6-4.06Zm.57.22,5.5,5.81A21.86,21.86,0,0,1,52,339.09Zm12.69.39,1.54,4.08a22,22,0,0,1-7.21,1.37Zm.57-.22,7.82.2a21.93,21.93,0,0,1-6.27,3.88Zm9.13-9.3,4.27,2a22,22,0,0,1-4.46,6.44Zm-3.09-7.65,2.06-4.86L82.5,319l-6.24,5.87Zm9.3.12L75.91,313l5.33-2A22,22,0,0,1,82.65,318.34Zm-42.53-7.73,4.42,1.76-6,5.48A21.9,21.9,0,0,1,40.12,310.61Zm-1.56,8.72L44.37,325,40,326.67A21.92,21.92,0,0,1,38.56,319.33Zm42.39,8-4.27-2,5.94-5.58A21.87,21.87,0,0,1,81,327.3Z" transform="translate(-37.74 -295.46)"/><ellipse class="cls-2" cx="22.87" cy="23.33" rx="22.37" ry="22.34"/><path class="cls-3" d="M488.68,296.12c7.65,6.44,17.59,23.44,13.77,35.2a14.91,14.91,0,0,1-13.77,10.16,14.75,14.75,0,0,1-13.8-10C471.06,319.73,480.93,302.57,488.68,296.12Z" transform="translate(-37.74 -295.46)"/><line class="cls-4" x1="450.95" y1="46.01" x2="454.95" y2="41.28"/><polyline class="cls-5" points="454.95 41.28 461.15 41.63 460.85 35.32"/><polyline class="cls-5" points="460.83 35.19 465.42 29.35 460.44 22.71"/><polyline class="cls-5" points="460.44 22.71 461.24 14.51 454.26 9.67"/><line class="cls-4" x1="456.92" y1="7.36" x2="454.26" y2="9.67"/><polyline class="cls-5" points="450.95 0.65 454.26 9.67 458.06 28.27"/><line class="cls-4" x1="460.44" y1="22.71" x2="458.06" y2="28.27"/><polyline class="cls-5" points="450.95 12.01 460.44 22.71 464.15 21.57"/><line class="cls-4" x1="454.26" y1="9.67" x2="450.95" y2="12.01"/><line class="cls-4" x1="458.06" y1="28.27" x2="460.83" y2="35.19"/><polyline class="cls-5" points="455.29 36.51 460.83 35.19 464.46 36.57"/><line class="cls-4" x1="454.95" y1="41.28" x2="455.35" y2="36.57"/><line class="cls-4" x1="458.06" y1="28.27" x2="455.29" y2="36.51"/><polyline class="cls-5" points="450.88 37.92 454.95 41.28 456.39 44.83"/><line class="cls-4" x1="455.29" y1="36.51" x2="450.94" y2="37.92"/><line class="cls-4" x1="450.95" y1="46.01" x2="446.82" y2="41.28"/><polyline class="cls-5" points="446.82 41.28 440.71 41.63 441.19 35.19"/><polyline class="cls-5" points="441.19 35.19 436.3 29.38 441.41 22.71"/><polyline class="cls-5" points="441.41 22.71 440.64 14.51 447.72 9.67"/><line class="cls-4" x1="444.95" y1="7.36" x2="447.72" y2="9.67"/><polyline class="cls-5" points="450.95 0.65 447.72 9.67 443.8 28.14"/><line class="cls-4" x1="441.41" y1="22.71" x2="443.8" y2="28.14"/><line class="cls-4" x1="441.41" y1="22.71" x2="450.95" y2="12.01"/><line class="cls-4" x1="447.72" y1="9.67" x2="450.95" y2="12.01"/><line class="cls-4" x1="443.8" y1="28.14" x2="441.19" y2="35.19"/><polyline class="cls-5" points="446.63 36.51 441.19 35.19 437.33 36.56"/><line class="cls-4" x1="446.82" y1="41.28" x2="446.63" y2="36.51"/><line class="cls-4" x1="443.8" y1="28.14" x2="446.63" y2="36.51"/><polyline class="cls-5" points="450.88 37.92 446.82 41.28 445.49 44.88"/><line class="cls-4" x1="446.63" y1="36.51" x2="450.88" y2="37.92"/><line class="cls-4" x1="441.41" y1="22.65" x2="437.73" y2="21.57"/><path class="cls-6" d="M416.9,318.79c0,9.46,4.27,17.8,10.74,22.68,6.48-4.88,10.74-13.22,10.74-22.68s-4.27-17.8-10.74-22.68C421.17,301,416.9,309.33,416.9,318.79Z" transform="translate(-37.74 -295.46)"/><polyline class="cls-7" points="389.85 46.01 387.32 39.49 385.37 41.66"/><polyline class="cls-7" points="381.95 36.05 387.32 39.49 387.16 33.72 389.89 38.02 387.32 39.49"/><polyline class="cls-7" points="379.75 29.63 382.63 29.56 387.01 33.42 384.75 23.69 382.63 29.49 381.95 36.05"/><line class="cls-7" x1="379.17" y1="23.46" x2="382.63" y2="29.56"/><polyline class="cls-7" points="379.17 23.46 382.56 17.34 384.75 23.69 387.01 13.38 382.56 17.34"/><polyline class="cls-7" points="381.91 10.56 382.56 17.34 379.71 17.23"/><polyline class="cls-7" points="381.94 10.89 387.29 7.38 387.01 13.38 389.85 8.84 387.2 7.28"/><polyline class="cls-7" points="389.85 0.65 387.29 7.38 385.31 5.08"/><polyline class="cls-7" points="389.94 46.01 392.46 39.49 394.41 41.66"/><polyline class="cls-7" points="397.84 36.05 392.46 39.49 392.63 33.72 389.89 38.02 392.46 39.49"/><polyline class="cls-7" points="400.03 29.63 397.16 29.56 392.77 33.42 395.03 23.69 397.16 29.49 397.84 36.05"/><line class="cls-7" x1="400.62" y1="23.46" x2="397.16" y2="29.56"/><polyline class="cls-7" points="400.62 23.46 397.23 17.34 395.03 23.69 392.77 13.38 397.23 17.34"/><polyline class="cls-7" points="397.87 10.56 397.23 17.34 400.07 17.23"/><polyline class="cls-7" points="397.84 10.89 392.5 7.38 392.77 13.38 389.94 8.84 392.59 7.28"/><polyline class="cls-7" points="389.94 0.65 392.5 7.38 394.47 5.08"/><polyline class="cls-7" points="327.74 46.01 324.07 39.49 319.9 42.68"/><polyline class="cls-7" points="315.47 36.73 324.07 39.49 323.62 33.42 327.81 38.02 324.07 39.49"/><polyline class="cls-7" points="313.06 29.63 317.24 29.56 323.62 33.42 320.33 23.69 317.24 29.49 315.47 36.73"/><line class="cls-7" x1="312.51" y1="23.33" x2="317.24" y2="29.56"/><polyline class="cls-7" points="312.51 23.33 317.14 17.34 320.33 23.69 323.62 13.38 317.14 17.34"/><polyline class="cls-7" points="315.11 10.89 317.14 17.34 313.28 16.24"/><polyline class="cls-7" points="315.11 10.89 324.02 7.38 323.62 13.38 327.74 8.84 324.02 7.38"/><polyline class="cls-7" points="327.74 0.65 324.02 7.38 319.84 4.03"/><polyline class="cls-7" points="327.87 46.01 331.55 39.49 335.89 42.8"/><polyline class="cls-7" points="340.56 36.46 331.55 39.49 332 33.39 327.81 38.02 331.55 39.49"/><polyline class="cls-7" points="342.81 29.64 338.38 29.56 332 33.42 335.29 23.69 338.38 29.49 340.56 36.46"/><line class="cls-7" x1="343.41" y1="23.46" x2="338.38" y2="29.56"/><polyline class="cls-7" points="343.41 23.46 338.48 17.34 335.29 23.69 332 13.38 338.48 17.34"/><polyline class="cls-7" points="340.87 10.8 338.48 17.34 342.66 16.34"/><polyline class="cls-7" points="340.87 10.8 331.6 7.38 332 13.38 327.87 8.84 331.6 7.38"/><polyline class="cls-7" points="327.87 0.65 331.6 7.38 335.94 3.9"/><ellipse class="cls-6" cx="327.96" cy="23.33" rx="15.45" ry="22.68"/><path class="cls-6" d="M299.62,341.47H283.81A14.77,14.77,0,0,1,269,326.7V310.89a14.77,14.77,0,0,1,14.77-14.77h15.81a14.77,14.77,0,0,1,14.77,14.77V326.7A14.77,14.77,0,0,1,299.62,341.47Z" transform="translate(-37.74 -295.46)"/><polyline class="cls-7" points="253.95 0.65 262.25 8.1 268.15 2.02"/><polyline class="cls-7" points="272 4.79 269.98 15.74 263.15 15.07 262.25 8.1 272.09 4.76"/><polyline class="cls-7" points="275.57 9.97 269.98 15.74 276.65 23.33"/><polyline class="cls-7" points="263.15 15.07 265.88 23.33 269.98 15.74"/><polyline class="cls-7" points="253.95 0.65 262.25 8.1 268.15 2.02"/><polyline class="cls-7" points="272 4.79 269.98 15.74 263.15 15.07 262.25 8.1 272.09 4.76"/><polyline class="cls-7" points="275.57 9.97 269.98 15.74 276.65 23.33"/><polyline class="cls-7" points="262.25 8.1 253.98 11.73 263.15 15.07 265.88 23.33 269.98 15.74"/><polyline class="cls-7" points="253.95 45.98 262.25 38.53 268.15 44.62"/><polyline class="cls-7" points="272 41.84 269.98 30.89 263.15 31.56 262.25 38.53 272.09 41.87"/><polyline class="cls-7" points="275.57 36.66 269.98 30.89 276.65 23.3"/><polyline class="cls-7" points="263.15 31.56 265.88 23.3 269.98 30.89"/><polyline class="cls-7" points="253.95 45.98 262.25 38.53 268.15 44.62"/><polyline class="cls-7" points="272 41.84 269.98 30.89 263.15 31.56 262.25 38.53 272.09 41.87"/><polyline class="cls-7" points="275.57 36.66 269.98 30.89 276.65 23.3"/><polyline class="cls-7" points="262.25 38.53 253.98 34.9 263.15 31.56 265.88 23.3 269.98 30.89"/><polyline class="cls-7" points="254.16 0.65 245.86 8.1 239.96 2.02"/><polyline class="cls-7" points="236.11 4.79 238.14 15.74 244.97 15.07 245.86 8.1 236.02 4.76"/><polyline class="cls-7" points="232.55 9.97 238.14 15.74 231.46 23.33"/><polyline class="cls-7" points="244.97 15.07 242.24 23.33 238.14 15.74"/><polyline class="cls-7" points="254.16 0.65 245.86 8.1 239.96 2.02"/><polyline class="cls-7" points="236.11 4.79 238.14 15.74 244.97 15.07 245.86 8.1 236.02 4.76"/><polyline class="cls-7" points="232.55 9.97 238.14 15.74 231.46 23.33"/><polyline class="cls-7" points="245.86 8.1 254.14 11.73 244.97 15.07 242.24 23.33 238.14 15.74"/><polyline class="cls-7" points="254.16 45.98 245.86 38.53 239.96 44.62"/><polyline class="cls-7" points="236.11 41.84 238.14 30.89 244.97 31.56 245.86 38.53 236.02 41.87"/><polyline class="cls-7" points="232.55 36.66 238.14 30.89 231.46 23.3"/><polyline class="cls-7" points="244.97 31.56 242.24 23.3 238.14 30.89"/><polyline class="cls-7" points="254.16 45.98 245.86 38.53 239.96 44.62"/><polyline class="cls-7" points="236.11 41.84 238.14 30.89 244.97 31.56 245.86 38.53 236.02 41.87"/><polyline class="cls-7" points="232.55 36.66 238.14 30.89 231.46 23.3"/><polyline class="cls-7" points="245.86 38.53 254.14 34.9 244.97 31.56 242.24 23.3 238.14 30.89"/><rect class="cls-6" x="579.7" y="0.65" width="45.33" height="45.33"/><polygon class="cls-7" points="625.05 46.01 602.39 36.82 579.72 46.01 588.88 23.34 579.72 0.67 602.39 9.86 625.05 0.67 615.87 23.34 625.05 46.01"/><polygon class="cls-7" points="613.52 41.36 591.03 41.36 591.03 34.62 588.87 23.36 591.03 12.6 591.03 5.28 613.52 5.28 613.52 12.09 615.86 23.36 613.52 34.8 613.52 41.36"/><polygon class="cls-7" points="584.33 34.47 584.33 11.99 591.07 11.99 602.32 9.82 613.09 11.99 620.4 11.99 620.4 34.47 613.6 34.47 602.32 36.81 590.89 34.47 584.33 34.47"/><path class="cls-7" d="M722.15,306" transform="translate(-37.74 -295.46)"/><line class="cls-7" x1="684.41" y1="10.56" x2="675.38" y2="0.78"/><polyline class="cls-7" points="684.41 10.56 679.64 12.17 671.68 14.4 672.26 8.62"/><polyline class="cls-7" points="660.82 18.22 667.54 17.1 662.91 26.12 672.17 28.94 673.37 21"/><polyline class="cls-7" points="667.54 17.1 673.37 21 671.68 14.4 667.54 17.1 661.55 11.32 672.26 8.62 666.77 2.85"/><polyline class="cls-7" points="671.68 38.32 681.35 37.29 679.04 30.52"/><polyline class="cls-7" points="666.78 32.95 672.17 28.94 671.68 38.32"/><line class="cls-7" x1="672.17" y1="28.94" x2="679.04" y2="30.52"/><polyline class="cls-7" points="676.61 42.11 681.35 37.29 684.41 34.43 679.04 30.52 673.37 21"/><line class="cls-7" x1="681.35" y1="37.29" x2="684.52" y2="46.01"/><path class="cls-6" d="M722.26,341.47c17.81-6.22,29.27-25.81,21.17-39.49a12.13,12.13,0,0,0-21,.48l-.12.29-.12-.29a12.13,12.13,0,0,0-21-.48C693,315.66,704.45,335.25,722.26,341.47Z" transform="translate(-37.74 -295.46)"/><path class="cls-7" d="M722.15,306" transform="translate(-37.74 -295.46)"/><polyline class="cls-7" points="693.44 0.81 696.57 8.62 689.19 12.17 684.42 15.38 684.41 15.38 679.64 12.17 672.26 8.62 675.38 0.78"/><line class="cls-7" x1="684.42" y1="10.56" x2="693.44" y2="0.81"/><polyline class="cls-7" points="684.42 10.56 689.19 12.17 697.15 14.4 696.57 8.62"/><polyline class="cls-7" points="708.26 18.26 701.29 17.1 705.98 26.17 696.66 28.94 695.46 21"/><polyline class="cls-7" points="702.15 2.75 696.57 8.62 707.45 11.3 701.29 17.1 697.15 14.4 695.46 21 701.29 17.1"/><polyline class="cls-7" points="697.16 38.54 687.48 37.29 689.79 30.52"/><polyline class="cls-7" points="702.22 33.07 696.66 28.94 697.16 38.54"/><line class="cls-7" x1="696.66" y1="28.94" x2="689.79" y2="30.52"/><polyline class="cls-7" points="692.31 42.21 687.48 37.29 684.42 34.43 689.79 30.52 695.46 21"/><line class="cls-7" x1="687.48" y1="37.29" x2="684.52" y2="46.01"/><line class="cls-7" x1="684.53" y1="7.29" x2="684.41" y2="15.38"/><line class="cls-7" x1="195.44" y1="5.65" x2="192.91" y2="7.19"/><line class="cls-7" x1="187.37" y1="5.71" x2="190.44" y2="0.65"/><line class="cls-7" x1="190.39" y1="8.72" x2="192.91" y2="7.19"/><polyline class="cls-7" points="187.37 5.71 185.83 8.23 187.86 10.26 190.39 8.72"/><line class="cls-7" x1="192.91" y1="7.19" x2="188.91" y2="3.18"/><line class="cls-7" x1="192.92" y1="7.19" x2="192.91" y2="7.19"/><line class="cls-7" x1="190.39" y1="8.73" x2="190.39" y2="8.72"/><line class="cls-7" x1="167.3" y1="0.65" x2="170.37" y2="5.71"/><line class="cls-7" x1="164.83" y1="7.19" x2="162.3" y2="5.65"/><polyline class="cls-7" points="170.37 5.71 171.91 8.23 169.88 10.26 167.35 8.72"/><line class="cls-7" x1="164.83" y1="7.19" x2="167.35" y2="8.72"/><line class="cls-7" x1="164.82" y1="7.19" x2="164.83" y2="7.19"/><line class="cls-7" x1="168.83" y1="3.18" x2="164.83" y2="7.19"/><line class="cls-7" x1="167.35" y1="8.73" x2="167.35" y2="8.72"/><polyline class="cls-7" points="190.39 37.94 187.86 36.4 185.83 38.42 190.44 46.01"/><line class="cls-7" x1="190.39" y1="37.94" x2="192.91" y2="39.47"/><line class="cls-7" x1="192.91" y1="39.47" x2="195.44" y2="41.01"/><line class="cls-7" x1="192.91" y1="39.47" x2="192.92" y2="39.47"/><line class="cls-7" x1="192.91" y1="39.47" x2="188.91" y2="43.48"/><line class="cls-7" x1="187.37" y1="40.95" x2="190.39" y2="37.94"/><line class="cls-7" x1="190.39" y1="37.94" x2="190.39" y2="37.93"/><polyline class="cls-7" points="167.29 46.01 171.91 38.42 169.88 36.4 167.35 37.94"/><line class="cls-7" x1="167.35" y1="37.94" x2="164.83" y2="39.47"/><line class="cls-7" x1="164.83" y1="39.47" x2="162.3" y2="41.01"/><line class="cls-7" x1="164.83" y1="39.47" x2="168.83" y2="43.48"/><line class="cls-7" x1="164.83" y1="39.47" x2="164.82" y2="39.47"/><line class="cls-7" x1="167.35" y1="37.93" x2="167.35" y2="37.94"/><line class="cls-7" x1="167.35" y1="37.94" x2="170.37" y2="40.95"/><polygon class="cls-6" points="167.29 0.65 162.3 5.65 162.3 41.01 167.29 46.01 190.44 46.01 195.44 41.01 195.44 5.65 190.44 0.65 167.29 0.65"/><line class="cls-7" x1="164.83" y1="7.19" x2="164.83" y2="39.47"/><line class="cls-7" x1="169.88" y1="36.4" x2="169.88" y2="10.26"/><line class="cls-7" x1="167.35" y1="37.94" x2="167.35" y2="8.72"/><polyline class="cls-7" points="167.35 8.72 170.37 5.71 187.37 5.71 190.39 8.72"/><line class="cls-7" x1="185.83" y1="8.23" x2="171.91" y2="8.23"/><line class="cls-7" x1="187.86" y1="10.26" x2="187.86" y2="36.4"/><line class="cls-7" x1="185.83" y1="38.42" x2="171.91" y2="38.42"/><line class="cls-7" x1="190.39" y1="8.72" x2="190.39" y2="37.94"/><line class="cls-7" x1="192.91" y1="7.19" x2="192.91" y2="39.47"/><line class="cls-7" x1="187.37" y1="40.95" x2="170.37" y2="40.95"/><line class="cls-7" x1="168.83" y1="43.48" x2="188.91" y2="43.48"/><line class="cls-7" x1="188.91" y1="3.18" x2="168.83" y2="3.18"/><line class="cls-7" x1="94.11" y1="38.66" x2="90.54" y2="46.01"/><polyline class="cls-7" points="94.11 38.66 95.79 35.21 91.99 31.41 84.87 34.87"/><line class="cls-7" x1="84.87" y1="34.87" x2="81.19" y2="36.66"/><line class="cls-7" x1="84.87" y1="34.87" x2="84.87" y2="34.87"/><line class="cls-7" x1="94.11" y1="38.66" x2="94.11" y2="38.66"/><polyline class="cls-7" points="126.55 36.66 115.75 31.41 111.95 35.21 117.2 46.01"/><line class="cls-7" x1="94.11" y1="8" x2="92.33" y2="4.33"/><line class="cls-7" x1="84.87" y1="11.79" x2="88.54" y2="13.57"/><line class="cls-7" x1="90.54" y1="0.65" x2="92.33" y2="4.33"/><polyline class="cls-7" points="88.54 13.57 91.99 15.25 95.79 11.45 94.11 8"/><line class="cls-7" x1="84.87" y1="11.79" x2="81.19" y2="10"/><line class="cls-7" x1="92.33" y1="4.33" x2="92.33" y2="4.33"/><line class="cls-7" x1="84.87" y1="11.79" x2="84.87" y2="11.79"/><line class="cls-7" x1="84.87" y1="11.79" x2="92.33" y2="4.33"/><line class="cls-7" x1="88.54" y1="13.57" x2="88.54" y2="13.57"/><line class="cls-7" x1="94.11" y1="8" x2="94.11" y2="8"/><line class="cls-7" x1="94.11" y1="8" x2="88.54" y2="13.57"/><line class="cls-7" x1="117.2" y1="0.65" x2="115.41" y2="4.33"/><line class="cls-7" x1="119.2" y1="13.57" x2="126.55" y2="10"/><polyline class="cls-7" points="119.2 13.57 115.75 15.25 111.95 11.45 115.41 4.33"/><line class="cls-7" x1="122.87" y1="11.79" x2="115.41" y2="4.33"/><line class="cls-7" x1="115.41" y1="4.33" x2="115.41" y2="4.33"/><line class="cls-7" x1="119.2" y1="13.57" x2="119.2" y2="13.57"/><line class="cls-7" x1="113.63" y1="8" x2="119.2" y2="13.57"/><polygon class="cls-6" points="117.2 46.01 90.54 46.01 81.19 36.66 81.19 10 90.54 0.65 117.2 0.65 126.55 10 126.55 36.66 117.2 46.01"/><line class="cls-7" x1="84.87" y1="11.79" x2="84.87" y2="34.87"/><polyline class="cls-7" points="88.54 13.57 88.54 33.09 94.11 38.66"/><line class="cls-7" x1="95.79" y1="11.45" x2="111.95" y2="11.45"/><line class="cls-7" x1="115.41" y1="4.33" x2="92.33" y2="4.33"/><line class="cls-7" x1="94.11" y1="8" x2="113.63" y2="8"/><polyline class="cls-7" points="91.99 15.25 91.99 31.41 95.79 35.21 111.95 35.21 115.75 31.41 115.75 15.25"/><polyline class="cls-7" points="94.11 38.66 113.63 38.66 119.2 33.09 119.2 13.57"/><polyline class="cls-7" points="84.87 34.87 92.33 42.33 115.41 42.33 122.87 34.87 122.87 11.79"/><polygon class="cls-6" points="536.2 46.01 509.2 46.01 501.2 38.1 501.2 8.56 509.2 0.65 536.2 0.65 544.2 8.56 544.2 38.1 536.2 46.01"/><polygon class="cls-7" points="535.29 40.99 510.12 40.99 506.16 37.04 506.16 9.62 510.12 5.67 535.29 5.67 539.25 9.62 539.25 37.04 535.29 40.99"/><polyline class="cls-7" points="536.2 0.65 535.29 5.67 522.7 11.1 510.12 5.67 509.2 0.65"/><polyline class="cls-7" points="501.2 8.56 506.16 9.62 512.8 12.73"/><polyline class="cls-7" points="510.12 5.67 512.8 12.73 522.7 11.1 532.73 12.73"/><polyline class="cls-7" points="532.73 12.73 539.25 9.62 544.2 8.56"/><line class="cls-7" x1="535.29" y1="5.66" x2="532.73" y2="12.73"/><polyline class="cls-7" points="506.16 9.62 511.41 23.33 512.8 12.73"/><polyline class="cls-7" points="506.16 37.04 511.41 23.33 512.8 33.87 506.16 37.04"/><polyline class="cls-7" points="510.12 40.99 512.8 33.87 522.7 35.86 510.12 40.99"/><polyline class="cls-7" points="532.73 12.73 534.3 23.33 539.25 9.62"/><polyline class="cls-7" points="539.25 37.04 532.73 33.87 534.3 23.33 539.25 37.04"/><polyline class="cls-7" points="535.29 40.99 532.73 33.87 522.7 35.86 535.29 40.99"/><line class="cls-7" x1="501.2" y1="38.1" x2="506.16" y2="37.04"/><line class="cls-7" x1="544.2" y1="38.1" x2="539.25" y2="37.04"/><line class="cls-7" x1="509.21" y1="46.01" x2="510.12" y2="40.99"/><line class="cls-7" x1="535.29" y1="40.99" x2="536.2" y2="46.01"/><text class="cls-8" transform="translate(6.3 67.31)"><tspan class="cls-9">R</tspan><tspan x="7.28" y="0">ound</tspan></text><text class="cls-8" transform="translate(84.5 67.31)">Asscher</text><text class="cls-8" transform="translate(158.28 67.31)">Emerald</text><text class="cls-10" transform="translate(233.53 67.31)">C<tspan class="cls-11" x="6.4" y="0">ushion</tspan></text><text class="cls-8" transform="translate(316.57 67.31)">O<tspan class="cls-12" x="7.92" y="0">v</tspan><tspan x="13.6" y="0">al</tspan></text><text class="cls-8" transform="translate(366.78 67.31)">Ma<tspan class="cls-13" x="16.09" y="0">r</tspan><tspan x="20.09" y="0">quise</tspan></text><text class="cls-8" transform="translate(440.03 67.31)"><tspan class="cls-14">P</tspan><tspan x="7.07" y="0">ear</tspan></text><text class="cls-8" transform="translate(503.54 67.31)">Radia<tspan class="cls-15" x="28.39" y="0">n</tspan><tspan x="34.8" y="0">t</tspan></text><text class="cls-8" transform="translate(582.15 67.31)">Prin<tspan class="cls-16" x="20.34" y="0">c</tspan><tspan class="cls-17" x="25.5" y="0">ess</tspan></text><text class="cls-8" transform="translate(670.63 67.31)"><tspan class="cls-18">H</tspan><tspan x="8.04" y="0">eart</tspan></text></svg>