<?xml version="1.0" encoding="utf-8"?>
<!-- Generator: Adobe Illustrator 16.0.0, SVG Export Plug-In . SVG Version: 6.00 Build 0)  -->
<!DOCTYPE svg PUBLIC "-//W3C//DTD SVG 1.1//EN" "http://www.w3.org/Graphics/SVG/1.1/DTD/svg11.dtd">
<svg version="1.1" id="Layer_1" xmlns="http://www.w3.org/2000/svg" xmlns:xlink="http://www.w3.org/1999/xlink" x="0px" y="0px"
	 width="570px" height="300px" viewBox="0 0 570 300" enable-background="new 0 0 570 300" xml:space="preserve">
<line fill="none" stroke="#E6E7E8" stroke-width="0.916" stroke-linecap="round" stroke-miterlimit="10" x1="534.336" y1="117.892" x2="44.973" y2="117.892"/>
<line fill="none" stroke="#E6E7E8" stroke-width="0.458" stroke-linecap="round" stroke-miterlimit="10" x1="534.336" y1="123.226" x2="34.618" y2="123.226"/>
<line fill="none" stroke="#E6E7E8" stroke-width="0.458" stroke-linecap="round" stroke-miterlimit="10" x1="534.336" y1="128.664" x2="34.618" y2="128.664"/>
<line fill="none" stroke="#E6E7E8" stroke-width="0.458" stroke-linecap="round" stroke-miterlimit="10" x1="534.336" y1="134.103" x2="34.618" y2="134.103"/>
<line fill="none" stroke="#E6E7E8" stroke-width="0.458" stroke-linecap="round" stroke-miterlimit="10" x1="534.336" y1="139.542" x2="34.618" y2="139.542"/>
<line fill="none" stroke="#E6E7E8" stroke-width="0.916" stroke-linecap="round" stroke-miterlimit="10" x1="534.336" y1="144.98" x2="44.973" y2="144.98"/>
<line fill="none" stroke="#E6E7E8" stroke-width="0.458" stroke-linecap="round" stroke-miterlimit="10" x1="534.336" y1="150.418" x2="34.618" y2="150.418"/>
<line fill="none" stroke="#E6E7E8" stroke-width="0.458" stroke-linecap="round" stroke-miterlimit="10" x1="534.336" y1="155.857" x2="34.618" y2="155.857"/>
<line fill="none" stroke="#E6E7E8" stroke-width="0.458" stroke-linecap="round" stroke-miterlimit="10" x1="534.336" y1="161.295" x2="34.618" y2="161.295"/>
<line fill="none" stroke="#E6E7E8" stroke-width="0.458" stroke-linecap="round" stroke-miterlimit="10" x1="534.336" y1="166.734" x2="34.618" y2="166.734"/>
<line fill="none" stroke="#E6E7E8" stroke-width="0.458" stroke-linecap="round" stroke-miterlimit="10" x1="534.336" y1="107.015" x2="34.618" y2="107.015"/>
<line fill="none" stroke="#E6E7E8" stroke-width="0.458" stroke-linecap="round" stroke-miterlimit="10" x1="534.336" y1="101.576" x2="34.618" y2="101.576"/>
<line fill="none" stroke="#E6E7E8" stroke-width="0.458" stroke-linecap="round" stroke-miterlimit="10" x1="534.336" y1="112.453" x2="34.618" y2="112.453"/>
<line fill="none" stroke="#808285" stroke-width="0.916" stroke-linecap="round" stroke-miterlimit="10" x1="7.739" y1="117.892" x2="44.973" y2="117.892"/>
<line fill="none" stroke="#808285" stroke-width="0.458" stroke-linecap="round" stroke-miterlimit="10" x1="7.739" y1="123.226" x2="34.618" y2="123.226"/>
<line fill="none" stroke="#808285" stroke-width="0.458" stroke-linecap="round" stroke-miterlimit="10" x1="7.739" y1="128.664" x2="34.618" y2="128.664"/>
<line fill="none" stroke="#808285" stroke-width="0.458" stroke-linecap="round" stroke-miterlimit="10" x1="7.739" y1="134.103" x2="34.618" y2="134.103"/>
<line fill="none" stroke="#808285" stroke-width="0.458" stroke-linecap="round" stroke-miterlimit="10" x1="7.739" y1="139.542" x2="34.618" y2="139.542"/>
<line fill="none" stroke="#808285" stroke-width="0.916" stroke-linecap="round" stroke-miterlimit="10" x1="7.739" y1="144.98" x2="44.973" y2="144.98"/>
<line fill="none" stroke="#808285" stroke-width="0.458" stroke-linecap="round" stroke-miterlimit="10" x1="7.739" y1="150.418" x2="34.618" y2="150.418"/>
<line fill="none" stroke="#808285" stroke-width="0.458" stroke-linecap="round" stroke-miterlimit="10" x1="7.739" y1="155.857" x2="34.618" y2="155.857"/>
<line fill="none" stroke="#808285" stroke-width="0.458" stroke-linecap="round" stroke-miterlimit="10" x1="7.739" y1="161.295" x2="34.618" y2="161.295"/>
<line fill="none" stroke="#808285" stroke-width="0.458" stroke-linecap="round" stroke-miterlimit="10" x1="7.739" y1="166.734" x2="34.618" y2="166.734"/>
<line fill="none" stroke="#808285" stroke-width="0.458" stroke-linecap="round" stroke-miterlimit="10" x1="7.739" y1="107.015" x2="34.618" y2="107.015"/>
<line fill="none" stroke="#808285" stroke-width="0.458" stroke-linecap="round" stroke-miterlimit="10" x1="7.739" y1="101.576" x2="34.618" y2="101.576"/>
<line fill="none" stroke="#808285" stroke-width="0.458" stroke-linecap="round" stroke-miterlimit="10" x1="7.739" y1="112.453" x2="34.618" y2="112.453"/>
<g>
	
		<line fill="none" stroke="#808285" stroke-width="0.916" stroke-linecap="round" stroke-miterlimit="10" x1="7.739" y1="172.172" x2="7.739" y2="101.576"/>
</g>
<line fill="none" stroke="#808285" stroke-width="0.916" stroke-linecap="round" stroke-miterlimit="10" x1="561.215" y1="117.892" x2="523.981" y2="117.892"/>
<line fill="none" stroke="#808285" stroke-width="0.458" stroke-linecap="round" stroke-miterlimit="10" x1="561.215" y1="123.226" x2="534.336" y2="123.226"/>
<line fill="none" stroke="#808285" stroke-width="0.458" stroke-linecap="round" stroke-miterlimit="10" x1="561.215" y1="128.664" x2="534.336" y2="128.664"/>
<line fill="none" stroke="#808285" stroke-width="0.458" stroke-linecap="round" stroke-miterlimit="10" x1="561.215" y1="134.103" x2="534.336" y2="134.103"/>
<line fill="none" stroke="#808285" stroke-width="0.458" stroke-linecap="round" stroke-miterlimit="10" x1="561.215" y1="139.542" x2="534.336" y2="139.542"/>
<line fill="none" stroke="#808285" stroke-width="0.916" stroke-linecap="round" stroke-miterlimit="10" x1="561.215" y1="144.98" x2="523.981" y2="144.98"/>
<line fill="none" stroke="#808285" stroke-width="0.458" stroke-linecap="round" stroke-miterlimit="10" x1="561.215" y1="150.418" x2="534.336" y2="150.418"/>
<line fill="none" stroke="#808285" stroke-width="0.458" stroke-linecap="round" stroke-miterlimit="10" x1="561.215" y1="155.857" x2="534.336" y2="155.857"/>
<line fill="none" stroke="#808285" stroke-width="0.458" stroke-linecap="round" stroke-miterlimit="10" x1="561.215" y1="161.295" x2="534.336" y2="161.295"/>
<line fill="none" stroke="#808285" stroke-width="0.458" stroke-linecap="round" stroke-miterlimit="10" x1="561.215" y1="166.734" x2="534.336" y2="166.734"/>
<line fill="none" stroke="#808285" stroke-width="0.458" stroke-linecap="round" stroke-miterlimit="10" x1="561.215" y1="107.015" x2="534.336" y2="107.015"/>
<line fill="none" stroke="#808285" stroke-width="0.458" stroke-linecap="round" stroke-miterlimit="10" x1="561.215" y1="101.576" x2="534.336" y2="101.576"/>
<line fill="none" stroke="#808285" stroke-width="0.458" stroke-linecap="round" stroke-miterlimit="10" x1="561.215" y1="112.453" x2="534.336" y2="112.453"/>
<g>
	
		<line fill="none" stroke="#808285" stroke-width="0.916" stroke-linecap="round" stroke-miterlimit="10" x1="561.215" y1="172.172" x2="561.215" y2="101.576"/>
</g>
<line fill="none" stroke="#808285" stroke-width="0.916" stroke-linecap="round" stroke-linejoin="round" stroke-miterlimit="10" x1="7.739" y1="172.172" x2="561.215" y2="172.172"/>
<path fill="#868686" d="M458.929,141.738c0,3.765,0.731,7.53,2.092,11.086l0,0c1.464,3.66,3.66,7.007,6.484,9.831l0,0l0,0l0,0l0,0
	l0,0l0,0l0,0l0,0c2.614,2.72,5.752,4.811,9.203,6.38c3.661,1.673,7.635,2.51,11.714,2.51h0.419c3.66,0,7.32-0.627,10.772-1.987
	c3.556-1.359,6.798-3.451,9.622-6.065c0,0,5.333-6.171,6.902-9.832c1.568-3.66,2.405-7.634,2.51-11.609l0,0v-0.209
	c0-3.765-0.731-7.426-2.092-10.877c-1.464-3.765-3.66-7.112-6.484-9.936l0,0c-2.614-2.615-5.543-4.707-8.89-6.275
	c-3.87-1.778-7.948-2.719-12.236-2.719h-0.21c-3.974,0-7.948,0.837-11.608,2.406c-3.557,1.464-6.694,3.661-9.413,6.275l0.313,0.313
	l0,0l-0.313-0.313l0.313,0.313l-0.313-0.313c-2.824,2.824-5.021,6.17-6.484,9.727c-1.465,3.556-2.196,7.321-2.301,11.19V141.738z
	 M476.708,153.033L476.708,153.033L476.708,153.033L476.708,153.033L476.708,153.033z M499.403,153.766l-9.831,3.974l-12.55-5.021
	l-4.498-11.086l4.916-11.609l11.086-4.602l12.133,5.543l4.078,10.04L499.403,153.766z M499.09,154.811l-2.196,7.531l-6.484-4.08
	L499.09,154.811z M488.526,158.158l-8.157,3.66l-2.929-8.158L488.526,158.158z M501.286,130.442l-3.347-8.576l11.4-0.209
	l-1.569,11.818L501.286,130.442z M500.24,129.919l-10.668-4.811l7.635-3.138L500.24,129.919z M477.858,129.083l2.824-7.321
	l6.902,3.347L477.858,129.083z M476.813,129.501l-8.053,3.138l-0.313-11.295l11.399,0.313L476.813,129.501z M476.395,130.547
	l-4.288,10.145l-3.138-7.217L476.395,130.547z M472.106,142.679l3.87,9.622l-7.321-2.405L472.106,142.679z M476.395,153.347
	l3.138,8.681h-11.296l0.314-11.295L476.395,153.347z M489.468,158.681l6.903,4.393l-7.949,7.635l-7.635-8.157L489.468,158.681z
	 M500.031,154.393l8.89-3.347l-0.313,11.818l-10.981-0.313L500.031,154.393z M500.345,153.347l4.812-11.4l3.556,8.158
	L500.345,153.347z M505.261,139.959l-3.451-8.471l5.961,2.719L505.261,139.959z M510.176,122.075
	c2.406,2.615,4.288,5.438,5.544,8.681l-7.008,2.615L510.176,122.075z M498.044,121.029l3.138-5.438
	c2.824,1.359,5.334,3.138,7.635,5.229L498.044,121.029z M497.312,120.716l-7.32-7.949c3.66,0.104,7.216,0.941,10.458,2.405
	L497.312,120.716z M496.685,121.238l-8.158,3.347l-7.426-3.556l7.845-8.158L496.685,121.238z M480.578,120.506l-2.72-5.647
	c3.242-1.36,6.694-1.987,10.146-2.092L480.578,120.506z M479.846,120.82l-10.772-0.314c2.405-2.196,5.125-3.974,8.054-5.334
	L479.846,120.82z M468.027,132.534l-5.856-2.301c1.359-3.033,3.242-5.857,5.543-8.367L468.027,132.534z M471.688,141.633
	l-3.661,7.74l-8.053-7.949l8.367-7.635L471.688,141.633z M467.505,161.4c-2.301-2.511-4.184-5.334-5.438-8.473l5.752-2.195
	L467.505,161.4z M479.428,162.864l-2.72,5.334c-2.928-1.36-5.543-3.138-7.844-5.334H479.428z M480.265,163.178l7.216,7.635
	c-3.451-0.209-6.798-0.941-9.936-2.301L480.265,163.178z M496.894,163.596l1.987,5.334c-3.033,1.15-6.275,1.778-9.518,1.778
	L496.894,163.596z M497.73,163.387l10.249,0.314c-2.51,2.196-5.229,3.869-8.262,5.125L497.73,163.387z M509.758,151.046l5.647,2.614
	c-1.464,3.139-3.451,5.962-5.856,8.473L509.758,151.046z M505.679,141.005l2.72-6.38l9.308,7.426l-8.262,7.74L505.679,141.005z
	 M517.916,141.215l-8.891-7.112l7.008-2.614C517.184,134.625,517.811,137.868,517.916,141.215z M461.856,130.965l5.857,2.301
	l-7.844,7.216C459.975,137.24,460.602,133.998,461.856,130.965z M459.766,142.47l7.739,7.53l-5.753,2.196
	C460.497,149.059,459.87,145.816,459.766,142.47z M509.025,163.178L509.025,163.178L509.025,163.178L509.025,163.178z
	 M515.614,153.033l-5.647-2.615l7.844-7.321C517.706,146.444,516.975,149.791,515.614,153.033z"/>
<path fill="#868686" d="M447.737,144.248c0-3.451-0.627-6.798-1.882-10.04c-1.36-3.452-3.348-6.484-5.962-9.204l0,0
	c-2.405-2.406-5.125-4.393-8.158-5.752c-3.556-1.569-7.32-2.406-11.19-2.51l0,0h-0.209c-3.661,0-7.321,0.732-10.668,2.196
	c-3.242,1.36-6.171,3.347-8.681,5.857l0,0c-2.615,2.615-4.602,5.648-5.962,8.89c-1.359,3.242-2.092,6.693-2.092,10.25l0,0v0.209
	c0,3.452,0.628,6.903,1.987,10.145l0,0c1.359,3.347,3.347,6.484,5.962,9.099l0,0l0,0l0,0l0,0l0,0l0,0
	c2.405,2.511,5.334,4.498,8.472,5.857c3.347,1.464,7.007,2.301,10.772,2.301h0.418c3.451,0,6.693-0.627,9.936-1.883
	c3.242-1.255,6.275-3.137,8.891-5.647l0,0l0,0c2.719-2.614,4.915-5.647,6.379-8.995c1.465-3.346,2.197-7.007,2.302-10.667
	L447.737,144.248z M409.145,154.497L409.145,154.497L409.145,154.497L409.145,154.497L409.145,154.497z M429.958,155.229
	l-8.995,3.66l-11.504-4.602l-4.079-10.145l4.497-10.668l10.25-4.183l11.19,5.02l3.766,9.204L429.958,155.229z M429.645,156.171
	l-1.987,6.902l-5.962-3.66L429.645,156.171z M420.022,159.309l-7.53,3.347l-2.72-7.53L420.022,159.309z M431.735,133.789
	l-3.032-7.949l10.563-0.209l-1.464,10.877L431.735,133.789z M430.795,133.371l-9.832-4.497l7.008-2.929L430.795,133.371z
	 M410.19,132.534l2.615-6.694l6.275,3.033L410.19,132.534z M409.25,132.952l-7.321,2.824l-0.314-10.354l10.459,0.314L409.25,132.952
	z M408.831,133.894l-3.975,9.308l-2.928-6.693L408.831,133.894z M404.962,145.084l3.556,8.89l-6.693-2.197L404.962,145.084z
	 M408.831,154.811l2.929,8.054h-10.354l0.314-10.459L408.831,154.811z M420.858,159.727l6.38,3.975l-7.321,7.007l-7.007-7.425
	L420.858,159.727z M430.585,155.857l8.158-3.033l-0.209,10.771l-10.146-0.313L430.585,155.857z M430.899,154.916l4.393-10.459
	l3.242,7.53L430.899,154.916z M435.292,142.574l-3.138-7.739l5.438,2.405L435.292,142.574z M439.894,126.154
	c2.196,2.405,3.87,5.02,5.125,7.948l-6.484,2.406L439.894,126.154z M428.808,125.108l2.928-5.021
	c2.615,1.255,4.916,2.824,7.008,4.811L428.808,125.108z M428.075,124.899l-6.693-7.321c3.347,0.104,6.589,0.836,9.622,2.196
	L428.075,124.899z M427.553,125.422l-7.426,3.138l-6.799-3.242l7.217-7.53L427.553,125.422z M412.701,124.69l-2.511-5.229
	c3.033-1.255,6.171-1.882,9.309-1.987L412.701,124.69z M412.073,124.899l-9.831-0.209c2.196-2.092,4.706-3.661,7.426-4.916
	L412.073,124.899z M401.196,135.776l-5.334-2.092c1.255-2.824,2.929-5.438,5.125-7.635L401.196,135.776z M404.543,144.143
	l-3.347,7.112l-7.426-7.321l7.635-7.007L404.543,144.143z M400.674,162.236c-2.092-2.301-3.766-4.915-5.021-7.844l5.334-1.987
	L400.674,162.236z M411.655,163.596l-2.511,4.916c-2.614-1.255-5.124-2.928-7.216-4.916H411.655z M412.387,163.806l6.694,7.007
	c-3.138-0.104-6.275-0.836-9.204-2.092L412.387,163.806z M427.762,164.328l1.883,4.916c-2.824,1.046-5.753,1.568-8.682,1.674
	L427.762,164.328z M428.389,164.015l9.413,0.209c-2.301,1.987-4.811,3.556-7.635,4.706L428.389,164.015z M439.476,152.824
	l5.124,2.405c-1.359,2.929-3.137,5.543-5.438,7.844L439.476,152.824z M435.71,143.516l2.511-5.857l8.575,6.798l-7.53,7.111
	L435.71,143.516z M447.006,143.725l-8.158-6.484l6.484-2.405C446.378,137.659,446.901,140.587,447.006,143.725z M395.549,134.312
	l5.334,2.092l-7.217,6.589C393.771,140.064,394.398,137.136,395.549,134.312z M393.666,144.875l7.008,6.902l-5.23,1.988
	C394.293,150.941,393.666,147.908,393.666,144.875z M444.914,154.497l-5.125-2.405l7.217-6.798
	C446.796,148.536,446.169,151.568,444.914,154.497z"/>
<path fill="#868686" d="M381.639,146.967c0-3.138-0.627-6.17-1.674-8.994c-1.255-3.033-3.033-5.857-5.334-8.263l0,0
	c-2.092-2.196-4.602-3.87-7.32-5.125c-3.139-1.464-6.59-2.196-10.146-2.196l0,0h-0.209c-3.347,0-6.589,0.627-9.622,1.987
	c-2.929,1.255-5.543,3.033-7.74,5.229l0,0c-2.301,2.301-4.183,5.125-5.438,8.053c-1.256,2.928-1.883,6.066-1.883,9.204l0,0v0.209
	c0,3.137,0.627,6.17,1.777,9.099l0,0c1.256,3.032,3.033,5.856,5.334,8.157l0,0l0,0l0,0l0,0l0,0l0,0
	c2.197,2.197,4.812,3.975,7.635,5.229c3.033,1.36,6.275,2.092,9.727,2.092h0.314c3.033,0,6.066-0.522,8.89-1.673
	c2.929-1.15,5.647-2.824,7.948-5.021l0,0l0,0c2.511-2.301,4.393-5.021,5.753-8.157c1.359-3.033,1.987-6.275,2.092-9.623
	L381.639,146.967z M346.916,156.171L346.916,156.171L346.916,156.171L346.916,156.171L346.916,156.171z M365.637,156.902
	l-8.158,3.242l-10.354-4.184l-3.66-9.099l4.078-9.622l9.203-3.765l10.041,4.498l3.347,8.262L365.637,156.902z M365.322,157.635
	l-1.777,6.275l-5.334-3.347L365.322,157.635z M356.643,160.563l-6.799,3.032l-2.405-6.797L356.643,160.563z M367.205,137.554
	l-2.823-7.112l9.517-0.209l-1.254,9.832L367.205,137.554z M366.369,137.136l-8.891-3.974l6.275-2.615L366.369,137.136z
	 M347.857,136.404l2.404-6.066l5.648,2.719L347.857,136.404z M347.02,136.717l-6.588,2.615l-0.314-9.308l9.413,0.209L347.02,136.717
	z M346.602,137.659l-3.556,8.367l-2.614-5.961L346.602,137.659z M343.046,147.699l3.242,7.948l-6.065-1.987L343.046,147.699z
	 M346.602,156.484l2.615,7.217h-9.309l0.209-9.413L346.602,156.484z M357.479,160.877l5.753,3.557l-6.589,6.379l-6.381-6.693
	L357.479,160.877z M366.16,157.426l7.426-2.719l-0.21,9.727l-9.099-0.21L366.16,157.426z M366.474,156.589l3.974-9.413l2.929,6.798
	L366.474,156.589z M370.447,145.398l-2.823-7.007l4.915,2.196L370.447,145.398z M374.527,130.651
	c1.986,2.092,3.555,4.497,4.602,7.216l-5.857,2.197L374.527,130.651z M364.591,129.71l2.614-4.497
	c2.301,1.046,4.393,2.51,6.275,4.393L364.591,129.71z M363.963,129.501l-6.065-6.589c3.032,0.104,5.962,0.732,8.681,1.987
	L363.963,129.501z M363.44,129.919l-6.694,2.824l-6.17-2.929l6.484-6.798L363.44,129.919z M350.053,129.292l-2.195-4.707
	c2.719-1.046,5.543-1.673,8.366-1.778L350.053,129.292z M349.53,129.605l-8.89-0.209c1.986-1.883,4.184-3.347,6.693-4.393
	L349.53,129.605z M339.699,139.332l-4.811-1.882c1.045-2.51,2.614-4.811,4.602-6.903L339.699,139.332z M342.732,146.862
	l-3.033,6.484l-6.693-6.589l6.902-6.38L342.732,146.862z M339.281,163.178c-1.883-2.092-3.451-4.393-4.498-7.007l4.812-1.778
	L339.281,163.178z M349.111,164.328l-2.301,4.393c-2.405-1.15-4.602-2.614-6.484-4.393H349.111z M349.739,164.643l5.962,6.379
	c-2.824-0.104-5.648-0.731-8.263-1.882L349.739,164.643z M363.649,165.061l1.673,4.497c-2.51,0.941-5.124,1.464-7.844,1.464
	L363.649,165.061z M364.277,164.746l8.471,0.21c-2.092,1.778-4.287,3.242-6.797,4.184L364.277,164.746z M374.213,154.602
	l4.602,2.197c-1.15,2.614-2.824,5.02-4.811,7.007L374.213,154.602z M370.866,146.339l2.301-5.334l7.739,6.171l-6.798,6.38
	L370.866,146.339z M380.906,146.444l-7.32-5.857l5.856-2.091C380.383,141.005,380.906,143.725,380.906,146.444z M334.574,137.973
	l4.811,1.882l-6.484,5.961C333.006,143.202,333.633,140.482,334.574,137.973z M332.9,147.49l6.381,6.17l-4.707,1.778
	C333.528,152.928,333.006,150.314,332.9,147.49z M379.129,156.171l-4.602-2.196l6.484-6.066
	C380.802,150.837,380.174,153.557,379.129,156.171z"/>
<path fill="#868686" d="M320.979,148.013c0-2.928-0.523-5.857-1.674-8.681c-1.15-2.928-2.929-5.647-5.125-7.844l0,0
	c-2.092-2.092-4.393-3.765-7.008-4.916c-3.032-1.359-6.274-2.092-9.621-2.092l0,0h-0.209c-3.139,0-6.275,0.628-9.204,1.883
	c-2.824,1.15-5.334,2.824-7.426,5.02l0,0c-2.196,2.196-3.974,4.811-5.125,7.635c-1.15,2.824-1.778,5.752-1.778,8.89l0,0v0.209
	c0,3.033,0.523,5.962,1.673,8.785l0,0c1.15,2.929,2.929,5.543,5.125,7.844l0,0l0,0l0,0l0,0l0,0l0,0
	c2.092,2.092,4.602,3.871,7.217,5.021c2.928,1.254,6.065,1.986,9.203,1.986h0.314c2.928,0,5.752-0.522,8.576-1.568
	c2.823-1.15,5.438-2.72,7.635-4.811l0,0l0,0c2.404-2.197,4.184-4.812,5.438-7.74c1.256-2.928,1.883-6.066,1.988-9.204V148.013z
	 M287.719,156.902L287.719,156.902L287.719,156.902L287.719,156.902L287.719,156.902z M305.604,157.53l-7.739,3.138l-9.936-3.975
	l-3.452-8.785l3.87-9.204l8.786-3.661l9.621,4.393l3.242,7.949L305.604,157.53z M305.395,158.262l-1.674,5.962l-5.125-3.242
	L305.395,158.262z M297.027,160.981l-6.484,2.929l-2.301-6.484L297.027,160.981z M307.172,139.019l-2.614-6.798l9.099-0.209
	l-1.254,9.308L307.172,139.019z M306.336,138.705l-8.472-3.87l5.962-2.51L306.336,138.705z M288.66,137.973l2.301-5.752l5.439,2.615
	L288.66,137.973z M287.824,138.286l-6.38,2.51l-0.313-8.89l8.995,0.209L287.824,138.286z M287.51,139.123l-3.347,8.053l-2.51-5.752
	L287.51,139.123z M284.059,148.745l3.138,7.635l-5.752-1.883L284.059,148.745z M287.51,157.111l2.51,6.903h-8.889l0.209-8.995
	L287.51,157.111z M297.864,161.4l5.543,3.451l-6.274,6.066l-6.066-6.381L297.864,161.4z M306.127,158.053l7.111-2.614l-0.209,9.308
	l-8.681-0.209L306.127,158.053z M306.44,157.217l3.765-8.995l2.824,6.485L306.44,157.217z M310.311,146.653l-2.72-6.694l4.706,2.092
	L310.311,146.653z M314.18,132.429c1.883,1.987,3.348,4.288,4.393,6.903l-5.543,2.092L314.18,132.429z M304.662,131.593l2.51-4.288
	c2.197,1.046,4.184,2.405,5.962,4.184L304.662,131.593z M304.035,131.383l-5.752-6.275c2.928,0.104,5.646,0.732,8.262,1.882
	L304.035,131.383z M303.512,131.802l-6.484,2.719l-5.856-2.824l6.274-6.484L303.512,131.802z M290.857,131.174l-2.092-4.497
	c2.614-1.046,5.229-1.569,8.053-1.673L290.857,131.174z M290.229,131.383l-8.472-0.209c1.882-1.778,4.079-3.138,6.38-4.184
	L290.229,131.383z M280.816,140.796l-4.602-1.883c1.046-2.405,2.51-4.602,4.393-6.589L280.816,140.796z M283.745,147.908
	l-2.824,6.171l-6.38-6.275l6.589-6.066L283.745,147.908z M280.398,163.596c-1.883-1.986-3.243-4.287-4.288-6.693l4.602-1.673
	L280.398,163.596z M289.916,164.643l-2.197,4.184c-2.3-1.047-4.392-2.511-6.17-4.184H289.916z M290.543,164.956l5.752,6.065
	c-2.719-0.104-5.438-0.731-7.948-1.777L290.543,164.956z M303.721,165.27l1.569,4.288c-2.405,0.941-4.915,1.36-7.53,1.464
	L303.721,165.27z M304.349,165.061l8.157,0.209c-1.986,1.674-4.184,3.033-6.484,4.079L304.349,165.061z M313.866,155.438
	l4.393,2.092c-1.15,2.511-2.72,4.706-4.603,6.693L313.866,155.438z M310.624,147.385l2.196-5.02l7.426,5.857l-6.484,6.17
	L310.624,147.385z M320.351,147.595l-7.007-5.648l5.543-2.092C319.723,142.365,320.246,144.98,320.351,147.595z M276.005,139.542
	l4.602,1.778l-6.171,5.752C274.542,144.457,275.064,141.947,276.005,139.542z M274.332,148.536l6.066,5.961l-4.497,1.673
	C274.959,153.766,274.437,151.255,274.332,148.536z M318.572,156.902l-4.497-2.092l6.171-5.856
	C320.141,151.674,319.618,154.393,318.572,156.902z"/>
<path fill="#868686" d="M262.409,149.896c0-2.719-0.523-5.438-1.464-7.949c-1.046-2.719-2.615-5.125-4.706-7.216l0,0
	c-1.883-1.883-4.079-3.452-6.485-4.498c-2.824-1.255-5.752-1.987-8.89-1.987l0,0h-0.209c-2.929,0-5.752,0.627-8.472,1.673
	c-2.51,1.046-4.811,2.615-6.798,4.602l0,0c-1.987,1.987-3.661,4.498-4.707,7.007c-1.046,2.615-1.673,5.334-1.673,8.158l0,0v0.209
	c0,2.72,0.523,5.438,1.569,8.054l0,0c1.046,2.719,2.615,5.124,4.707,7.216l0,0l0,0l0,0l0,0l0,0l0,0
	c1.987,1.987,4.184,3.556,6.693,4.603c2.719,1.15,5.543,1.777,8.472,1.882h0.314c2.719,0,5.334-0.522,7.844-1.464
	c2.615-1.046,5.021-2.51,7.007-4.393l0,0l0,0c2.196-2.092,3.87-4.393,5.021-7.112s1.778-5.543,1.778-8.472V149.896z M231.87,158.053
	L231.87,158.053L231.87,158.053L231.87,158.053L231.87,158.053z M248.29,158.681l-7.112,2.929l-9.099-3.66l-3.242-8.054l3.556-8.472
	l8.053-3.347l8.785,3.974l2.929,7.321L248.29,158.681z M248.081,159.413l-1.569,5.438l-4.706-2.929L248.081,159.413z
	 M240.446,161.923l-5.961,2.72l-2.196-5.962L240.446,161.923z M249.754,141.633l-2.405-6.275l8.367-0.209l-1.151,8.576
	L249.754,141.633z M249.022,141.319l-7.739-3.556l5.543-2.301L249.022,141.319z M232.707,140.692l2.092-5.334l5.02,2.405
	L232.707,140.692z M231.974,141.005l-5.856,2.301l-0.209-8.263l8.262,0.209L231.974,141.005z M231.661,141.738l-3.138,7.425
	l-2.301-5.229L231.661,141.738z M228.523,150.627l2.824,7.008l-5.334-1.777L228.523,150.627z M231.661,158.262l2.301,6.381h-8.262
	l0.209-8.263L231.661,158.262z M241.178,162.236l5.02,3.139l-5.857,5.543l-5.543-5.857L241.178,162.236z M248.813,159.1l6.484-2.406
	l-0.209,8.576l-8.053-0.209L248.813,159.1z M249.126,158.367l3.556-8.263l2.615,5.962L249.126,158.367z M252.578,148.64l-2.51-6.17
	l4.288,1.987L252.578,148.64z M256.239,135.567c1.778,1.883,3.137,3.975,4.079,6.275l-5.125,1.882L256.239,135.567z
	 M247.453,134.835l2.301-3.975c1.987,0.941,3.87,2.301,5.543,3.87L247.453,134.835z M246.826,134.625l-5.334-5.752
	c2.615,0.104,5.229,0.732,7.635,1.778L246.826,134.625z M246.407,135.044l-5.961,2.51l-5.334-2.615l5.752-5.961L246.407,135.044z
	 M234.693,134.417l-1.987-4.079c2.405-0.941,4.811-1.464,7.426-1.569L234.693,134.417z M234.17,134.625l-7.844-0.209
	c1.778-1.569,3.661-2.928,5.857-3.87L234.17,134.625z M225.49,143.202l-4.288-1.673c0.941-2.196,2.301-4.288,3.975-6.066
	L225.49,143.202z M228.209,149.896l-2.614,5.647l-5.857-5.752l6.066-5.543L228.209,149.896z M225.176,164.224
	c-1.673-1.882-3.033-3.87-3.975-6.171l4.184-1.568L225.176,164.224z M233.857,165.27l-1.987,3.87
	c-2.092-0.941-3.974-2.302-5.752-3.87H233.857z M234.38,165.479l5.229,5.543c-2.51-0.104-4.916-0.627-7.217-1.673L234.38,165.479z
	 M246.617,165.793l1.464,3.869c-2.196,0.837-4.497,1.256-6.903,1.359L246.617,165.793z M247.14,165.584l7.53,0.209
	c-1.778,1.568-3.765,2.824-5.961,3.765L247.14,165.584z M255.82,156.693l4.079,1.883c-1.046,2.301-2.51,4.393-4.288,6.17
	L255.82,156.693z M252.892,149.373l1.987-4.707l6.798,5.438l-5.961,5.647L252.892,149.373z M261.782,149.477l-6.484-5.125
	l5.125-1.883C261.259,144.771,261.782,147.072,261.782,149.477z M221.097,142.051l4.288,1.673l-5.752,5.229
	C219.633,146.653,220.156,144.248,221.097,142.051z M219.528,150.418l5.543,5.439l-4.184,1.568
	C220.051,155.229,219.633,152.824,219.528,150.418z M260.213,158.053l-4.079-1.883l5.648-5.333
	C261.677,153.347,261.154,155.752,260.213,158.053z"/>
<path fill="#868686" d="M207.71,151.777c0-2.509-0.418-4.915-1.359-7.216c-0.941-2.51-2.406-4.707-4.288-6.589l0,0
	c-1.673-1.778-3.661-3.138-5.857-4.184c-2.51-1.15-5.229-1.778-8.053-1.778l0,0h-0.104c-2.615,0-5.229,0.523-7.74,1.569
	c-2.301,0.941-4.393,2.406-6.275,4.184l0,0c-1.883,1.883-3.347,4.079-4.288,6.484c-0.941,2.301-1.464,4.811-1.464,7.426l0,0v0.209
	c0,2.51,0.523,5.02,1.359,7.32l0,0c0.941,2.406,2.406,4.707,4.288,6.59l0,0l0,0l0,0l0,0l0,0l0,0c1.778,1.777,3.87,3.242,6.066,4.184
	c2.405,1.045,5.02,1.673,7.739,1.673h0.314c2.51,0,4.916-0.419,7.112-1.359c2.405-0.941,4.497-2.302,6.38-4.079l0,0l0,0
	c1.987-1.883,3.556-4.078,4.602-6.484c1.046-2.405,1.569-5.02,1.674-7.739L207.71,151.777z M179.785,159.309L179.785,159.309
	L179.785,159.309L179.785,159.309L179.785,159.309z M194.846,159.831l-6.484,2.614l-8.262-3.346l-2.928-7.322l3.242-7.739
	l7.321-3.033l8.053,3.661l2.719,6.589L194.846,159.831z M194.637,160.459l-1.464,5.02l-4.288-2.719L194.637,160.459z
	 M187.629,162.76l-5.438,2.405l-1.987-5.438L187.629,162.76z M196.206,144.248l-2.196-5.752l7.635-0.209l-1.046,7.844
	L196.206,144.248z M195.474,143.934l-7.112-3.242l5.021-2.092L195.474,143.934z M180.622,143.411l1.882-4.811l4.602,2.196
	L180.622,143.411z M179.89,143.62l-5.334,2.092l-0.209-7.53l7.635,0.209L179.89,143.62z M179.576,144.353l-2.824,6.693l-2.092-4.811
	L179.576,144.353z M176.752,152.405l2.615,6.38l-4.811-1.568L176.752,152.405z M179.576,159.518l2.092,5.752h-7.53l0.209-7.53
	L179.576,159.518z M188.361,162.969l4.602,2.929l-5.334,5.124l-5.125-5.334L188.361,162.969z M195.264,160.25l5.961-2.197
	l-0.209,7.845l-7.321-0.21L195.264,160.25z M195.578,159.518l3.242-7.53l2.405,5.438L195.578,159.518z M198.716,150.627
	l-2.301-5.647l3.975,1.778L198.716,150.627z M202.063,138.705c1.569,1.673,2.824,3.661,3.661,5.752l-4.707,1.673L202.063,138.705z
	 M194.009,138.077l2.092-3.661c1.882,0.837,3.556,2.092,5.02,3.451L194.009,138.077z M193.486,137.868l-4.811-5.333
	c2.405,0.104,4.811,0.627,7.007,1.568L193.486,137.868z M193.068,138.182l-5.438,2.301l-4.916-2.405l5.229-5.438L193.068,138.182z
	 M182.4,137.763l-1.778-3.765c2.196-0.836,4.393-1.359,6.693-1.359L182.4,137.763z M181.877,137.868l-7.112-0.209
	c1.569-1.464,3.347-2.719,5.334-3.556L181.877,137.868z M174.033,145.712l-3.87-1.569c0.837-1.987,2.092-3.87,3.661-5.543
	L174.033,145.712z M176.543,151.777l-2.405,5.125l-5.334-5.229l5.543-5.125L176.543,151.777z M173.719,164.852
	c-1.569-1.674-2.719-3.557-3.661-5.648l3.87-1.464L173.719,164.852z M181.668,165.793l-1.778,3.556
	c-1.883-0.837-3.661-2.092-5.229-3.556H181.668z M182.191,166.002l4.811,5.125c-2.301-0.105-4.498-0.628-6.589-1.465
	L182.191,166.002z M193.277,166.315l1.36,3.556c-1.987,0.732-4.184,1.15-6.275,1.15L193.277,166.315z M193.8,166.106l6.798,0.209
	c-1.673,1.464-3.451,2.614-5.438,3.347L193.8,166.106z M201.749,158.053l3.765,1.778c-0.941,2.092-2.301,3.975-3.87,5.647
	L201.749,158.053z M199.029,151.359l1.778-4.288l6.171,4.916l-5.438,5.124L199.029,151.359z M207.187,151.465l-5.857-4.707
	l4.707-1.673C206.664,147.072,207.083,149.268,207.187,151.465z M169.954,144.666l3.87,1.569l-5.229,4.811
	C168.699,148.85,169.222,146.653,169.954,144.666z M168.595,152.301l5.125,5.021l-3.765,1.464
	C169.118,156.693,168.699,154.497,168.595,152.301z M205.723,159.309l-3.765-1.778l5.229-4.915
	C207.083,154.916,206.56,157.111,205.723,159.309z"/>
<path fill="#868686" d="M156.776,153.975c0-2.197-0.418-4.393-1.255-6.485c-0.836-2.196-2.196-4.183-3.87-5.857l0,0
	c-1.569-1.568-3.242-2.824-5.229-3.66c-2.301-1.046-4.706-1.569-7.216-1.569l0,0h-0.104c-2.406,0-4.707,0.523-6.903,1.359
	c-2.092,0.837-3.975,2.092-5.543,3.765l0,0c-1.674,1.673-3.033,3.661-3.87,5.752c-0.836,2.092-1.359,4.288-1.359,6.588l0,0v0.21
	c0,2.196,0.418,4.393,1.255,6.484l0,0c0.837,2.196,2.196,4.183,3.765,5.856l0,0l0,0l0,0l0,0l0,0l0,0
	c1.569,1.568,3.452,2.824,5.438,3.766c2.196,0.941,4.498,1.464,6.903,1.464h0.209c2.197,0,4.288-0.419,6.38-1.15
	c2.092-0.837,4.079-1.987,5.752-3.661l0,0l0,0c1.778-1.673,3.138-3.555,4.079-5.752c0.941-2.196,1.464-4.497,1.464-6.902
	L156.776,153.975z M131.989,160.668L131.989,160.668L131.989,160.668L131.989,160.668L131.989,160.668z M145.376,161.086
	l-5.752,2.301l-7.426-3.033l-2.615-6.484l2.928-6.797l6.589-2.719l7.216,3.242l2.406,5.856L145.376,161.086z M145.167,161.714
	l-1.255,4.497l-3.765-2.405L145.167,161.714z M138.996,163.701l-4.811,2.196l-1.778-4.812L138.996,163.701z M146.527,147.281
	l-1.987-5.125l6.798-0.104l-0.941,7.007L146.527,147.281z M145.899,146.967l-6.38-2.824l4.498-1.882L145.899,146.967z
	 M132.721,146.444l1.673-4.288l4.079,1.987L132.721,146.444z M132.094,146.758l-4.707,1.882l-0.209-6.693l6.798,0.209
	L132.094,146.758z M131.78,147.385l-2.51,5.961l-1.882-4.288L131.78,147.385z M129.27,154.497l2.301,5.753l-4.288-1.465
	L129.27,154.497z M131.78,160.772l1.883,5.125h-6.694l0.209-6.694L131.78,160.772z M139.519,164.015l4.079,2.614l-4.707,4.498
	l-4.497-4.812L139.519,164.015z M145.794,161.504l5.229-1.986l-0.209,7.008l-6.484-0.21L145.794,161.504z M146.004,160.877
	l2.824-6.693l2.092,4.811L146.004,160.877z M148.828,152.928l-2.092-5.02l3.451,1.569L148.828,152.928z M151.756,142.365
	c1.36,1.569,2.51,3.242,3.242,5.125l-4.183,1.569L151.756,142.365z M144.644,141.738l1.883-3.242
	c1.673,0.732,3.137,1.778,4.497,3.137L144.644,141.738z M144.226,141.528l-4.288-4.706c2.196,0.104,4.288,0.522,6.171,1.464
	L144.226,141.528z M143.807,141.842l-4.811,1.987l-4.393-2.091l4.707-4.811L143.807,141.842z M134.29,141.424l-1.569-3.347
	c1.882-0.732,3.974-1.15,5.961-1.255L134.29,141.424z M133.872,141.633l-6.38-0.209c1.464-1.359,3.033-2.405,4.811-3.138
	L133.872,141.633z M126.864,148.536l-3.451-1.359c0.732-1.778,1.882-3.452,3.242-4.916L126.864,148.536z M129.061,153.975
	l-2.092,4.602l-4.811-4.707l4.916-4.497L129.061,153.975z M126.55,165.584c-1.359-1.465-2.405-3.139-3.242-5.021l3.452-1.255
	L126.55,165.584z M133.663,166.42l-1.569,3.138c-1.673-0.837-3.242-1.882-4.602-3.138H133.663z M134.081,166.629l4.288,4.498
	c-2.092-0.105-4.079-0.523-5.857-1.359L134.081,166.629z M143.912,166.943l1.15,3.137c-1.778,0.628-3.661,1.047-5.648,1.047
	L143.912,166.943z M144.435,166.734l6.066,0.209c-1.464,1.255-3.138,2.301-4.916,3.033L144.435,166.734z M151.547,159.518
	l3.347,1.568c-0.837,1.883-1.987,3.557-3.451,5.021L151.547,159.518z M149.141,153.557l1.569-3.766l5.543,4.393l-4.811,4.602
	L149.141,153.557z M156.358,153.66l-5.229-4.183l4.184-1.569C155.939,149.791,156.253,151.674,156.358,153.66z M123.204,147.595
	l3.452,1.359l-4.602,4.288C122.158,151.359,122.472,149.477,123.204,147.595z M122.053,154.393l4.497,4.393l-3.347,1.256
	C122.472,158.262,122.053,156.38,122.053,154.393z M154.998,160.668l-3.347-1.568l4.602-4.393
	C156.253,156.799,155.835,158.785,154.998,160.668z"/>
<path fill="#868686" d="M110.235,158.053c0-1.673-0.314-3.346-0.941-5.02s-1.673-3.242-2.928-4.498l0,0
	c-1.15-1.15-2.51-2.196-4.079-2.824c-1.778-0.837-3.661-1.255-5.543-1.255l0,0h-0.104c-1.778,0-3.556,0.313-5.334,1.046
	c-1.569,0.627-3.033,1.673-4.288,2.824l0,0c-1.255,1.255-2.301,2.824-2.929,4.392c-0.627,1.569-1.046,3.348-1.046,5.125l0,0v0.105
	c0,1.777,0.314,3.451,0.941,5.02l0,0c0.627,1.674,1.673,3.242,2.929,4.497l0,0l0,0l0,0l0,0l0,0l0,0
	c1.255,1.255,2.614,2.196,4.183,2.929c1.674,0.732,3.452,1.15,5.334,1.15h0.209c1.673,0,3.347-0.314,4.916-0.941
	c1.673-0.627,3.138-1.568,4.393-2.824l0,0l0,0c1.36-1.254,2.405-2.823,3.138-4.496c0.732-1.674,1.15-3.452,1.15-5.334V158.053z
	 M91.2,163.178L91.2,163.178L91.2,163.178L91.2,163.178L91.2,163.178z M101.45,163.492l-4.498,1.777l-5.647-2.301l-1.987-5.02
	l2.196-5.23l5.021-2.092l5.543,2.511l1.882,4.497L101.45,163.492z M101.345,164.015l-0.941,3.451l-2.929-1.882L101.345,164.015z
	 M96.534,165.584l-3.661,1.673l-1.36-3.765L96.534,165.584z M102.391,152.928l-1.568-3.974l5.229-0.104l-0.732,5.334
	L102.391,152.928z M101.868,152.719l-4.916-2.195l3.452-1.465L101.868,152.719z M91.723,152.301l1.255-3.347l3.138,1.464
	L91.723,152.301z M91.2,152.51l-3.661,1.465l-0.104-5.125l5.229,0.104L91.2,152.51z M91.095,152.928l-1.987,4.603l-1.464-3.347
	L91.095,152.928z M89.108,158.472l1.778,4.393l-3.347-1.15L89.108,158.472z M90.991,163.283l1.464,3.974H87.33l0.105-5.124
	L90.991,163.283z M96.952,165.688l3.138,1.988l-3.661,3.451l-3.347-3.557L96.952,165.688z M101.763,163.806l4.079-1.569
	l-0.104,5.334l-5.021-0.104L101.763,163.806z M101.973,163.387l2.196-5.125l1.673,3.766L101.973,163.387z M104.169,157.217
	l-1.569-3.87l2.719,1.255L104.169,157.217z M106.365,149.163c1.046,1.151,1.882,2.511,2.51,3.975l-3.242,1.15L106.365,149.163z
	 M100.927,148.64l1.464-2.51c1.255,0.627,2.406,1.359,3.452,2.405L100.927,148.64z M100.508,148.536l-3.242-3.661
	c1.673,0.105,3.242,0.418,4.811,1.046L100.508,148.536z M100.299,148.745l-3.661,1.569l-3.347-1.569l3.556-3.765L100.299,148.745z
	 M92.978,148.431l-1.255-2.615c1.464-0.627,3.033-0.941,4.602-0.941L92.978,148.431z M92.664,148.536l-4.916-0.104
	c1.046-1.046,2.301-1.778,3.661-2.405L92.664,148.536z M87.226,153.869l-2.615-1.045c0.628-1.359,1.464-2.72,2.51-3.766
	L87.226,153.869z M88.899,158.053l-1.673,3.557l-3.661-3.66l3.765-3.452L88.899,158.053z M87.017,166.943
	c-1.046-1.15-1.883-2.406-2.51-3.87l2.615-0.94L87.017,166.943z M92.455,167.676L91.2,170.08c-1.36-0.627-2.51-1.463-3.556-2.404
	H92.455z M92.769,167.779l3.242,3.452c-1.569-0.104-3.138-0.419-4.498-1.046L92.769,167.779z M100.404,167.988l0.941,2.406
	c-1.359,0.523-2.824,0.837-4.288,0.837L100.404,167.988z M100.717,167.885l4.707,0.104c-1.15,0.941-2.405,1.779-3.765,2.302
	L100.717,167.885z M106.156,162.342l2.51,1.15c-0.627,1.464-1.569,2.719-2.719,3.869L106.156,162.342z M104.378,157.739l1.255-2.929
	l4.288,3.348l-3.765,3.556L104.378,157.739z M109.921,157.844l-4.079-3.242l3.242-1.15
	C109.607,154.811,109.921,156.275,109.921,157.844z M84.402,153.138l2.615,1.046l-3.556,3.242
	C83.565,155.961,83.879,154.602,84.402,153.138z M83.46,158.367l3.452,3.451l-2.615,0.941
	C83.774,161.4,83.565,159.936,83.46,158.367z M108.875,163.178l-2.51-1.15l3.556-3.347
	C109.816,160.145,109.503,161.714,108.875,163.178z"/>
<path fill="#868686" d="M71.852,160.772c0-1.359-0.209-2.72-0.732-3.974c-0.523-1.36-1.359-2.615-2.405-3.661l0,0
	c-0.941-0.941-1.987-1.673-3.242-2.301c-1.36-0.628-2.929-0.941-4.393-0.941l0,0h-0.105c-1.464,0-2.928,0.313-4.183,0.837
	c-1.255,0.627-2.406,1.359-3.452,2.301l0,0c-1.046,1.046-1.882,2.196-2.405,3.556c-0.523,1.255-0.837,2.614-0.837,4.079l0,0v0.104
	c0,1.36,0.209,2.72,0.732,3.974l0,0c0.523,1.36,1.359,2.511,2.301,3.557l0,0l0,0l0,0l0,0l0,0l0,0
	c0.941,0.941,2.092,1.777,3.347,2.301c1.36,0.628,2.824,0.941,4.288,0.941h0.104c1.36,0,2.719-0.209,3.975-0.732
	c1.255-0.522,2.51-1.255,3.556-2.195l0,0l0,0c1.046-1.047,1.883-2.197,2.51-3.557C71.538,163.806,71.852,162.342,71.852,160.772
	L71.852,160.772z M56.582,164.852L56.582,164.852L56.582,164.852L56.582,164.852L56.582,164.852z M64.844,165.165l-3.556,1.464
	l-4.602-1.883l-1.673-3.974l1.778-4.184l4.079-1.673l4.393,1.986l1.464,3.661L64.844,165.165z M64.739,165.479l-0.836,2.72
	l-2.301-1.464L64.739,165.479z M60.87,166.734l-2.928,1.359l-1.046-2.929L60.87,166.734z M65.576,156.693l-1.255-3.137l4.183-0.105
	l-0.523,4.288L65.576,156.693z M65.158,156.484l-3.87-1.777l2.719-1.15L65.158,156.484z M57,156.171l1.046-2.614l2.51,1.15
	L57,156.171z M56.686,156.275l-2.928,1.15l-0.104-4.079l4.184,0.104L56.686,156.275z M56.477,156.693l-1.569,3.66l-1.15-2.614
	L56.477,156.693z M54.908,161.086l1.464,3.557l-2.615-0.837L54.908,161.086z M56.477,164.956l1.15,3.138h-4.079l0.104-4.079
	L56.477,164.956z M61.288,166.943l2.51,1.568l-2.929,2.824l-2.824-2.929L61.288,166.943z M65.053,165.375l3.242-1.256l-0.104,4.288
	l-3.975-0.104L65.053,165.375z M65.262,165.061l1.778-4.079l1.255,3.033L65.262,165.061z M66.936,160.145l-1.255-3.033l2.196,0.941
	L66.936,160.145z M68.818,153.66c0.837,0.941,1.569,1.987,1.987,3.139l-2.615,0.94L68.818,153.66z M64.426,153.242l1.15-1.987
	c1.046,0.522,1.987,1.15,2.719,1.883L64.426,153.242z M64.112,153.138l-2.615-2.929c1.36,0.105,2.615,0.314,3.87,0.837
	L64.112,153.138z M63.903,153.347l-2.929,1.255l-2.719-1.255l2.824-2.928L63.903,153.347z M58.046,153.033l-0.941-2.092
	c1.15-0.523,2.406-0.732,3.661-0.732L58.046,153.033z M57.732,153.138l-3.87-0.104c0.837-0.837,1.883-1.465,2.929-1.987
	L57.732,153.138z M53.444,157.426l-2.091-0.837c0.522-1.15,1.15-2.092,1.987-3.032L53.444,157.426z M54.804,160.772l-1.36,2.823
	l-2.928-2.928l3.033-2.824L54.804,160.772z M53.235,167.885c-0.837-0.941-1.464-1.987-1.987-3.139l2.092-0.836L53.235,167.885z
	 M57.627,168.407l-0.941,1.987c-1.046-0.523-1.987-1.15-2.824-1.987H57.627z M57.837,168.512l2.614,2.824
	c-1.255-0.105-2.51-0.314-3.66-0.837L57.837,168.512z M64.007,168.721l0.732,1.987c-1.15,0.419-2.301,0.628-3.451,0.628
	L64.007,168.721z M64.216,168.617l3.765,0.104c-0.941,0.837-1.882,1.465-3.033,1.883L64.216,168.617z M68.609,164.224l2.091,0.941
	c-0.522,1.15-1.255,2.196-2.091,3.138V164.224z M67.145,160.563l0.941-2.302l3.347,2.72l-3.033,2.824L67.145,160.563z
	 M71.538,160.563l-3.242-2.614l2.51-0.941C71.329,158.158,71.538,159.413,71.538,160.563z M51.248,156.902l2.092,0.837l-2.824,2.614
	C50.516,159.1,50.725,157.949,51.248,156.902z M50.411,161.086l2.824,2.72l-2.092,0.837
	C50.725,163.387,50.516,162.236,50.411,161.086z M70.806,164.852l-2.092-0.941l2.824-2.719
	C71.538,162.445,71.224,163.701,70.806,164.852z"/>
<text transform="matrix(1 0 0 1 6.9727 98.6211)" fill="#C4A676" font-family="'TitilliumWeb-SemiBold'" font-size="12.5505">Millimeters</text>
<text transform="matrix(1 0 0 1 526.3086 97.9551)" fill="#C4A676" font-family="'TitilliumWeb-SemiBold'" font-size="12.5505">Inches</text>
<text transform="matrix(1 0 0 1 47.4131 188.6973)" fill="#868686" font-family="'TitilliumWeb-SemiBold'" font-size="10.4587">0.25    </text>
<text transform="matrix(1 0 0 1 76.6973 188.6973)" fill="#868686" font-family="'TitilliumWeb-SemiBold'" font-size="10.4587" letter-spacing="5"> </text>
<text transform="matrix(1 0 0 1 85.0645 188.6973)" fill="#868686" font-family="'TitilliumWeb-SemiBold'" font-size="10.4587">  0.50   </text>
<text transform="matrix(1 0 0 1 116.6494 188.6973)" fill="#868686" font-family="'TitilliumWeb-SemiBold'" font-size="10.4587" letter-spacing="3"> </text>
<text transform="matrix(1 0 0 1 122.7158 188.6973)" fill="#868686" font-family="'TitilliumWeb-SemiBold'" font-size="10.4587">  1.00             1.50               2.00               2.50                  3.00                   4.00                    5.00</text>
<text transform="matrix(1 0 0 1 47.4131 204.7461)" fill="#868686" font-family="'TitilliumWeb-SemiBold'" font-size="10.4587">4.00          5.00        6.50            7.30               8.00               8.70                  9.10                 10.10                  11.00</text>
<text transform="matrix(1 0 0 1 7.7715 188.6973)" fill="#868686" font-family="'TitilliumWeb-SemiBold'" font-size="10.4587">CARATS</text>
<text transform="matrix(1 0 0 1 21.1846 204.9082)" fill="#868686" font-family="'TitilliumWeb-SemiBold'" font-size="10.4587">mm</text>
<line fill="none" stroke="#808285" stroke-width="0.916" stroke-linecap="round" stroke-linejoin="round" stroke-miterlimit="10" x1="7.007" y1="192.357" x2="507.666" y2="192.357"/>
<line fill="none" stroke="#808285" stroke-width="0.916" stroke-linecap="round" stroke-linejoin="round" stroke-miterlimit="10" x1="44.973" y1="176.983" x2="44.973" y2="209.51"/>
</svg>
