<?xml version="1.0" encoding="utf-8"?>
<!-- Generator: Adobe Illustrator 16.0.0, SVG Export Plug-In . SVG Version: 6.00 Build 0)  -->
<!DOCTYPE svg PUBLIC "-//W3C//DTD SVG 1.1//EN" "http://www.w3.org/Graphics/SVG/1.1/DTD/svg11.dtd">
<svg version="1.1" id="Layer_1" xmlns="http://www.w3.org/2000/svg" xmlns:xlink="http://www.w3.org/1999/xlink" x="0px" y="0px"
	 width="570px" height="300px" viewBox="0 0 570 300" enable-background="new 0 0 570 300" xml:space="preserve">
<g>
	<path fill="#7D7E7D" d="M63.444,149.222L63,149.556L63.444,150l153.222,142.111l0.333,0.333l0.333-0.333L368.889,150l0.445-0.444
		l-0.445-0.333l-52.555-37.556L313.889,110l-14.777-10.556h-15.556h-67.444h-66.333h-15.556L63.444,149.222z M216.667,150.111
		h59.778l-39,91.666L216.667,150.111z M195.889,241.666l-39.444-91.555h59L195.889,241.666z M156.444,149.111l13.111-33.778
		l45,33.778H156.444z M217.667,149.111l45.778-33.778l13.111,33.778H217.667z M277.667,149.111l-13-33.445l58.889,33.445H277.667z
		 M216.111,149l-45.667-34.222l45.667-14.333l46.444,14.333L216.111,149z M155.333,149.111h-45.556l58.556-33.333L155.333,149.111z
		 M79.889,149.111L112.778,116l-5.222,33.111H79.889z M107.667,150.111l54,89.223l-81.778-89.112h27.778V150.111z M155.333,150.111
		l39.111,90.777l-85.333-90.777H155.333z M216.111,152l20.777,91.444l-20,47.111l-20.333-47.222L216.111,152z M277.667,150.111
		h46.667l-85.223,90.777L277.667,150.111z M353.111,150.111l-81.445,89.111l54.111-89.111H353.111z M325.889,149.111L320.334,116
		l32.777,33.111H325.889z M324.777,148.667l-60.222-34.111l19.111-14.111l35.445,14.444L324.777,148.667z M263.556,114.111
		l-44.111-13.667h62.667L263.556,114.111z M169.444,114l-18.222-13.556h61.556L169.444,114z M168.444,114.556l-59.889,34.222
		L113.889,115l35.778-14.444L168.444,114.556z M78.444,149.111H65.222l43.889-30.889L78.444,149.111z M78.444,150.111l77.444,84.333
		L65,150.111H78.444z M110.778,153.444l84.778,90.222l19.889,46.223L165,243.111L110.778,153.444z M237.889,243.556l84.667-90.222
		L268.111,243l-49.889,46.777L237.889,243.556z M354.556,150.111h12.667L277.667,234L354.556,150.111z M354.444,149.111L324,118.444
		l42.889,30.667H354.444z M313.334,110.778l2.332,1.667l0.111,0.111l-29.666-12.111h12.666L313.334,110.778z M134.556,100.444
		h12.667l-29.889,12.111L134.556,100.444z"/>
</g>
<g>
	<g>
		<circle id="SVGID_1_" fill="#F3F3F4" cx="367" cy="149.667" r="138.667"/>
	</g>
	<g>
		<defs>
			<circle id="SVGID_3_" cx="367" cy="149.667" r="138.667"/>
		</defs>
		<clipPath id="SVGID_4_">
			<use xlink:href="#SVGID_3_"  overflow="visible"/>
		</clipPath>
		<g clip-path="url(#SVGID_4_)">
			<path fill="#7E7F7F" stroke="#7E7E7E" stroke-width="0.25" stroke-miterlimit="10" d="M-82.889,148.444L-83.778,149l0.778,0.667
				l261.111,242.222l0.555,0.556l0.556-0.556l258.333-242.222l0.777-0.667l-0.777-0.556l-89.556-64l-4-2.889l-25.111-18h-26.555
				h-115H64.222H37.667L-82.889,148.444z M178.333,150h101.889l-66.333,156.223L178.333,150z M142.778,306.111L75.667,150h100.556
				L142.778,306.111z M75.556,148.333L98,90.778l76.778,57.556H75.556z M179.889,148.333L258,90.778l22.444,57.556H179.889z
				 M282.111,148.333l-22.223-57l100.445,57H282.111z M177.333,148.111L99.444,89.778l77.778-24.444l79.222,24.444L177.333,148.111z
				 M73.778,148.333H-3.889l99.777-57L73.778,148.333z M-54.778,148.333l56-56.445l-9,56.445H-54.778z M-7.556,150l92,151.889
				L-54.889,150H-7.556z M73.778,150l66.667,154.666L-5.111,150H73.778z M177.333,153.111l35.444,155.777l-34.111,80.334
				L144,308.777L177.333,153.111z M282.111,150h79.555L216.444,304.666L282.111,150z M410.889,150L272,301.889L364.223,150H410.889
				L410.889,150z M364.334,148.333L354.777,92l55.89,56.333H364.334z M362.556,147.556L259.889,89.333l32.556-24L352.777,90
				L362.556,147.556z M258.222,88.556L183,65.333h106.889L258.222,88.556z M97.778,88.444l-31-23.222h104.889L97.778,88.444z
				 M96.111,89.333l-102,58.222L3.333,90l60.778-24.667L96.111,89.333z M-57.222,148.333h-22.556L-5,95.667L-57.222,148.333z
				 M-57.222,150l132,143.889L-80.222,150H-57.222z M-2.111,155.666l144.445,153.667L176.222,388l-85.889-79.777L-2.111,155.666z
				 M214.444,309.223l144.333-153.667L266,308.333L181,388L214.444,309.223z M413.111,150h21.666L282.333,293L413.111,150z
				 M413.111,148.333L361.223,96l73.11,52.333H413.111z M343,82.889l4,2.889l0.111,0.111l-50.556-20.667h21.778L343,82.889z
				 M38.222,65.222h21.667L9,85.778L38.222,65.222z"/>
		</g>
	</g>
	<g>
		<circle id="SVGID_2_" fill="none" stroke="#C5A676" stroke-width="4" stroke-miterlimit="10" cx="367" cy="149.667" r="138.667"/>
	</g>
</g>
</svg>
