<?xml version="1.0" encoding="utf-8"?>
<!-- Generator: Adobe Illustrator 16.0.0, SVG Export Plug-In . SVG Version: 6.00 Build 0)  -->
<!DOCTYPE svg PUBLIC "-//W3C//DTD SVG 1.1//EN" "http://www.w3.org/Graphics/SVG/1.1/DTD/svg11.dtd">
<svg version="1.1" id="Layer_1" xmlns="http://www.w3.org/2000/svg" xmlns:xlink="http://www.w3.org/1999/xlink" x="0px" y="0px"
	 width="570px" height="300px" viewBox="0 0 570 300" enable-background="new 0 0 570 300" xml:space="preserve">
<linearGradient id="SVGID_1_" gradientUnits="userSpaceOnUse" x1="78.856" y1="81.2544" x2="354.5557" y2="81.2544" gradientTransform="matrix(1.4881 0 0 -1.4881 -39.7857 291.6722)">
	<stop  offset="0" style="stop-color:#FFFFFF"/>
	<stop  offset="0.3795" style="stop-color:#FFFFFD"/>
	<stop  offset="0.5963" style="stop-color:#FFFFF4"/>
	<stop  offset="0.772" style="stop-color:#FFFFE6"/>
	<stop  offset="0.9249" style="stop-color:#FFFFD3"/>
	<stop  offset="1" style="stop-color:#FFFFC6"/>
</linearGradient>
<path fill="url(#SVGID_1_)" d="M487.232,108.185l-70.387-50.298l-3.125-2.232l-19.792-14.137h-20.833h-90.477H193.78h-20.833
	l-94.792,66.667l-0.595,0.446l0.595,0.595l205.208,190.328L283.81,300l0.446-0.446l202.977-190.328l0.595-0.595L487.232,108.185z"/>
<path fill="#7F7F7F" stroke="#7E7F7E" stroke-width="0.25" stroke-miterlimit="10" d="M487.232,108.185l-70.387-50.298l-3.125-2.232
	l-19.792-14.137h-20.833h-90.477H193.78h-20.833l-94.792,66.667l-0.595,0.446l0.595,0.595l205.208,190.328L283.81,300l0.446-0.446
	l202.977-190.328l0.595-0.595L487.232,108.185z M484.702,108.036h-16.666l-40.774-41.071L484.702,108.036z M466.102,108.036h-36.459
	l-7.44-44.345L466.102,108.036z M393.482,42.708l19.345,13.839l3.125,2.232l0.149,0.149l-39.584-16.22H393.482z M373.244,42.857
	l47.47,19.345l7.59,45.238l-80.655-45.685L373.244,42.857z M363.721,108.036h-79.019l61.31-45.238L363.721,108.036z M347.648,63.244
	l78.869,44.792H365.06L347.648,63.244z M363.571,109.375L311.34,232.143l-27.977-122.768H363.571z M365.06,109.375h62.5
	L313.423,230.952L365.06,109.375z M371.012,42.708L346.31,61.012l-59.077-18.303H371.012z M282.619,42.708l62.202,19.196
	l-62.202,45.833l-61.161-45.833L282.619,42.708z M201.369,108.036h-61.012l78.423-44.792L201.369,108.036z M220.417,62.798
	l60.268,45.238h-77.976L220.417,62.798z M201.369,109.375l52.381,121.577L139.315,109.375H201.369z M202.857,109.375h79.018
	l-26.19,122.619L202.857,109.375z M278.304,42.708l-58.036,18.303l-24.405-18.303H278.304z M173.393,42.708h16.964l-39.881,16.22
	L173.393,42.708z M193.78,42.857l25.149,18.899L138.72,107.44l7.143-45.238L193.78,42.857z M137.232,108.036h-36.905l44.048-44.345
	L137.232,108.036z M139.464,66.667l-41.071,41.369H80.685L139.464,66.667z M80.238,109.375h18.155l103.72,112.946L80.238,109.375z
	 M100.179,109.375h37.202l72.321,119.346L100.179,109.375z M214.315,233.779L141.696,113.69l113.542,120.833l26.637,61.905
	L214.315,233.779z M283.81,297.321l-27.232-63.244l26.191-122.321l27.828,122.471L283.81,297.321z M285.596,296.429l26.339-61.905
	L425.327,113.69L352.41,233.779L285.596,296.429z M429.494,109.375h36.756L357.023,228.721L429.494,109.375z M365.209,221.727
	l102.827-112.352h17.112L365.209,221.727z"/>
<rect x="98.542" y="8.631" fill="none" stroke="#C1C1C1" stroke-width="0.2335" stroke-miterlimit="10" width="61.607" height="15.923"/>
<rect x="160.149" y="8.631" fill="#FFFFFA" stroke="#C1C1C1" stroke-width="0.2335" stroke-miterlimit="10" width="61.607" height="15.923"/>
<rect x="221.905" y="8.631" fill="#FFFFF5" stroke="#C1C1C1" stroke-width="0.2335" stroke-miterlimit="10" width="61.607" height="15.923"/>
<rect x="283.512" y="8.631" fill="#FFFFEF" stroke="#C1C1C1" stroke-width="0.2335" stroke-miterlimit="10" width="61.607" height="15.923"/>
<rect x="345.268" y="8.631" fill="#FFFFE0" stroke="#C1C1C1" stroke-width="0.2335" stroke-miterlimit="10" width="61.607" height="15.923"/>
<rect x="406.875" y="8.631" fill="#FFFFCD" stroke="#C1C1C1" stroke-width="0.2335" stroke-miterlimit="10" width="61.607" height="15.923"/>
<text transform="matrix(1 0 0 1 84.6143 22.4873)" fill="#7F7F7F" font-family="'TitilliumWeb-SemiBold'" font-size="16.369">D</text>
<text transform="matrix(1 0 0 1 84.6143 22.4873)" fill="none" stroke="#7E7F7E" stroke-width="0.25" stroke-miterlimit="10" font-family="'TitilliumWeb-SemiBold'" font-size="16.369">D</text>
<text transform="matrix(1 0 0 1 472.0156 22.4873)" fill="#7F7F7F" font-family="'TitilliumWeb-SemiBold'" font-size="16.369">Z</text>
<text transform="matrix(1 0 0 1 472.0156 22.4873)" fill="none" stroke="#7E7F7E" stroke-width="0.25" stroke-miterlimit="10" font-family="'TitilliumWeb-SemiBold'" font-size="16.369">Z</text>
</svg>
