<?xml version="1.0" encoding="utf-8"?>
<!-- Generator: Adobe Illustrator 16.0.0, SVG Export Plug-In . SVG Version: 6.00 Build 0)  -->
<!DOCTYPE svg PUBLIC "-//W3C//DTD SVG 1.1//EN" "http://www.w3.org/Graphics/SVG/1.1/DTD/svg11.dtd">
<svg version="1.1" id="Layer_1" xmlns="http://www.w3.org/2000/svg" xmlns:xlink="http://www.w3.org/1999/xlink" x="0px" y="0px"
	 width="570px" height="300px" viewBox="0 0 570 300" enable-background="new 0 0 570 300" xml:space="preserve">
<g>
	<path fill="#7D7E7D" d="M105,125.598l-0.52,0.389l0.52,0.52L284.091,292.61l0.39,0.39l0.39-0.39l177.143-166.104l0.52-0.52
		l-0.52-0.389l-61.429-43.896l-2.727-1.948l-17.273-12.338h-18.182h-78.961h-77.402h-18.182L105,125.598z M284.221,126.636h69.87
		l-45.585,107.143L284.221,126.636z M259.935,233.649l-46.104-107.013h68.961L259.935,233.649z M213.831,125.468l15.325-39.481
		l52.598,39.481H213.831z M285.26,125.468l53.506-39.481l15.325,39.481H285.26z M355.39,125.468l-15.194-38.961l68.831,39.091
		H355.39V125.468z M283.571,125.338l-53.376-40l53.376-16.753l54.286,16.753L283.571,125.338z M212.532,125.468h-53.247
		l68.441-39.091L212.532,125.468z M124.351,125.468l38.441-38.702l-6.233,38.702H124.351z M156.688,126.636l63.117,104.156
		l-95.584-104.156H156.688L156.688,126.636z M212.532,126.636l45.714,106.104l-99.74-106.104H212.532L212.532,126.636z
		 M283.571,128.844l24.286,106.882l-23.377,55.065l-23.766-55.194L283.571,128.844z M355.39,126.636h54.546L310.324,232.74
		L355.39,126.636z M443.701,126.636l-95.324,104.156l63.246-104.156H443.701L443.701,126.636z M411.883,125.468l-6.493-38.702
		l38.312,38.702H411.883z M410.584,124.948l-70.389-39.87l22.337-16.494l41.429,16.883L410.584,124.948z M339.025,84.429
		l-51.558-15.974h73.247L339.025,84.429z M229.026,84.429l-21.299-15.844h71.948L229.026,84.429z M227.857,85.078l-70,40
		l6.234-39.481l41.818-16.883L227.857,85.078z M122.662,125.468h-15.454l51.298-36.104L122.662,125.468z M122.662,126.636
		l90.52,98.572l-106.363-98.572H122.662z M160.455,130.532l99.091,105.454l23.247,54.027l-58.961-54.676L160.455,130.532z
		 M309.025,235.857l98.962-105.455l-63.637,104.806l-58.312,54.675L309.025,235.857z M445.26,126.636h14.935L355.52,224.688
		L445.26,126.636z M445.26,125.468l-35.584-35.844l50.13,35.844H445.26z M397.208,80.662l2.728,1.948l0.129,0.13L365.39,68.584
		h14.806L397.208,80.662z M188.117,68.584h14.805L168.117,82.61L188.117,68.584z"/>
</g>
<path fill="#C5A676" d="M290.975,9.624c-1.949,5.325-5.325,11.818-8.832,15.844l7.921-2.857v44.675h1.818V22.61l7.922,2.857
	C296.169,21.441,292.922,14.948,290.975,9.624z"/>
<path fill="#C5A676" d="M245.39,15.598c-1.948,5.324-5.325,11.818-8.831,15.844l7.922-2.857v38.701h1.818V28.714l7.922,2.857
	C250.584,27.416,247.338,20.922,245.39,15.598z"/>
<path fill="#C5A676" d="M222.662,32.351c-1.948,5.325-5.324,11.818-8.831,15.844l7.922-2.857v22.078h1.818V45.338l7.922,2.857
	C227.987,44.169,224.61,37.545,222.662,32.351z"/>
<path fill="#C5A676" d="M268.117,32.351c-1.948,5.325-5.325,11.818-8.831,15.844l7.922-2.857v22.078h1.818V45.338l7.922,2.857
	C273.441,44.169,270.065,37.545,268.117,32.351z"/>
<path fill="#C5A676" d="M310.844,32.351c-1.947,5.325-5.324,11.818-8.83,15.844l7.922-2.857v22.078h1.818V45.338l7.922,2.857
	C316.039,44.169,312.792,37.545,310.844,32.351z"/>
<path fill="#C5A676" d="M130.974,60.662c-5.195-1.298-11.688-4.675-16.364-7.922c1.429,5.455,2.468,12.728,1.948,18.052l4.805-6.883
	L145,97.545l1.559-1.039L122.792,62.87L130.974,60.662z"/>
<path fill="#C5A676" d="M167.597,37.675c-5.194-1.299-11.688-4.675-16.363-7.922c1.428,5.455,2.467,12.727,1.818,18.052l4.805-6.883
	l22.208,31.688l1.559-1.039l-22.078-31.688L167.597,37.675z"/>
<path fill="#C5A676" d="M158.766,64.299c-5.195-1.299-11.688-4.675-16.363-7.792c1.428,5.455,2.597,12.728,2.078,18.052l4.805-6.883
	l12.857,17.922l1.558-1.039l-12.857-17.922L158.766,64.299z"/>
<path fill="#C5A676" d="M122.662,89.753c-5.194-1.299-11.688-4.675-16.363-7.922c1.428,5.455,2.467,12.728,1.948,18.052L113.052,93
	l12.728,18.052l1.559-1.039L114.61,91.961L122.662,89.753z"/>
<path fill="#C5A676" d="M444.221,65.857c5.195-1.298,11.688-4.675,16.363-7.922c-1.428,5.455-2.467,12.727-1.947,18.052
	l-4.806-6.883l-23.637,33.636l-1.558-1.039l23.636-33.636L444.221,65.857z"/>
<path fill="#C5A676" d="M407.728,42.74c5.194-1.299,11.688-4.675,16.363-7.792c-1.429,5.454-2.598,12.727-2.078,18.052l-4.805-6.883
	L394.74,77.675l-1.559-1.039l22.598-31.688L407.728,42.74z"/>
<path fill="#C5A676" d="M416.429,69.364c5.194-1.299,11.688-4.675,16.363-7.792c-1.429,5.455-2.598,12.728-2.078,18.052
	l-4.805-6.883l-12.857,17.922l-1.559-1.039l12.857-17.922L416.429,69.364z"/>
<path fill="#C5A676" d="M452.272,95.208c5.195-1.299,11.688-4.676,16.364-7.922c-1.429,5.455-2.468,12.728-1.948,18.052
	l-4.806-6.883l-12.727,18.052l-1.559-1.039l12.727-18.052L452.272,95.208z"/>
<path fill="#C5A676" d="M351.234,32.351c-1.949,5.325-5.325,11.818-8.832,15.844l7.922-2.857v22.078h1.818V45.338l7.922,2.857
	C356.559,44.169,353.182,37.545,351.234,32.351z"/>
<path fill="#C5A676" d="M330.584,15.598c-1.947,5.324-5.324,11.818-8.83,15.844l7.922-2.857v38.701h1.818V28.714l7.922,2.857
	C335.909,27.416,332.533,20.922,330.584,15.598z"/>
<path fill="#C5A676" d="M379.025,17.935c-3.116,4.675-7.791,10.26-12.207,13.376l8.312-0.909l-8.571,36.494l1.818,0.39l8.571-36.494
	l7.013,4.546C381.494,30.662,379.805,23.52,379.025,17.935z"/>
<path fill="#C5A676" d="M204.221,31.312c-4.416-3.117-9.091-8.701-12.208-13.376c-0.649,5.584-2.468,12.727-4.935,17.403
	l7.013-4.546l8.571,36.494l1.818-0.39l-8.571-36.494L204.221,31.312z"/>
</svg>
