<?xml version="1.0" encoding="utf-8"?>
<!-- Generator: Adobe Illustrator 21.1.0, SVG Export Plug-In . SVG Version: 6.00 Build 0)  -->
<svg version="1.1" id="Layer_1" xmlns="http://www.w3.org/2000/svg" width="50.016" height="50.996" xmlns:xlink="http://www.w3.org/1999/xlink" x="0px" y="0px"
	 viewBox="0 0 32 32" style="enable-background:new 0 0 32 32;" xml:space="preserve">
<style type="text/css">
	.st0{fill:#C4A676;}
</style>
<path class="st0" d="M31,14.5l-2.4-3.5L28,6.9c-0.2-1.3-1.2-2.3-2.4-2.5l-4.1-0.7l-3.4-2.5c-1-0.8-2.5-0.8-3.5-0.1l-3.4,2.4L6.9,4
	C5.6,4.2,4.6,5.2,4.4,6.5l-0.7,4.1l-2.5,3.4c-0.8,1-0.8,2.5-0.1,3.5l2.4,3.5L4,25.1c0.2,1.3,1.2,2.3,2.4,2.5l4.1,0.8l3.4,2.5
	c1,0.8,2.5,0.8,3.5,0.1l3.4-2.4l4.2-0.6c1.3-0.2,2.3-1.2,2.5-2.4l0.7-4.1l2.5-3.4C31.7,17,31.7,15.6,31,14.5z M30.1,17.9L30.1,17.9
	l-2.4,3.2L27,25c-0.2,1.2-1.2,2.1-2.4,2.3l-3.9,0.6l-3.3,2.3c-1,0.7-2.4,0.7-3.3-0.1l-3.2-2.4L7,27c-1.2-0.2-2.1-1.2-2.3-2.4
	l-0.6-3.9l-2.3-3.3c-0.7-1-0.7-2.4,0.1-3.3l2.4-3.2L5,6.9c0.2-1.2,1.2-2.1,2.4-2.3l3.9-0.6l3.3-2.3c1-0.7,2.4-0.7,3.3,0.1l3.2,2.4
	L25,5c1.2,0.2,2.1,1.2,2.3,2.4l0.6,3.9l2.3,3.3C30.9,15.6,30.9,17,30.1,17.9z"/>
<path class="st0" d="M28.8,14.7l-2-3l-0.5-3.6c-0.2-1.1-1-2-2.1-2.2l-3.5-0.6l-2.9-2.2c-0.9-0.7-2.1-0.7-3-0.1l-2.9,2L8.2,5.7
	c-1.1,0.2-2,1-2.2,2.1l-0.6,3.5l-2.2,2.9c-0.7,0.9-0.7,2.1-0.1,3l2,3l0.5,3.6c0.2,1.1,1,2,2.1,2.2l3.5,0.6l2.9,2.2
	c0.9,0.7,2.1,0.7,3,0.1l2.9-2l3.6-0.5c1.1-0.2,2-1,2.2-2.1l0.6-3.5l2.2-2.9C29.4,16.9,29.4,15.6,28.8,14.7z M28.1,17.7L28.1,17.7
	l-2,2.7l-0.6,3.4c-0.2,1-1,1.8-2.1,2L20,26.2l-2.8,1.9c-0.9,0.6-2,0.6-2.9-0.1l-2.7-2l-3.3-0.6c-1-0.2-1.8-1-2-2.1L5.8,20l-1.9-2.8
	c-0.6-0.9-0.6-2,0.1-2.9l2-2.7l0.6-3.4c0.2-1,1-1.8,2.1-2L12,5.8l2.8-1.9c0.9-0.6,2-0.6,2.9,0.1l2.7,2l3.3,0.6c1,0.2,1.8,1,2,2.1
	l0.5,3.4l1.9,2.8C28.7,15.7,28.7,16.8,28.1,17.7z"/>
<polygon class="st0" points="21.2,13.9 16,17.3 10.8,13.9 10.8,16.7 16,20.1 21.2,16.7 "/>
</svg>
