<svg xmlns="http://www.w3.org/2000/svg" width="32" height="32" viewBox="0 0 37.22 37.969">
  <metadata><?xpacket begin="﻿" id="W5M0MpCehiHzreSzNTczkc9d"?>
<x:xmpmeta xmlns:x="adobe:ns:meta/" x:xmptk="Adobe XMP Core 5.6-c138 79.159824, 2016/09/14-01:09:01        ">
   <rdf:RDF xmlns:rdf="http://www.w3.org/1999/02/22-rdf-syntax-ns#">
      <rdf:Description rdf:about=""/>
   </rdf:RDF>
</x:xmpmeta>
                                                                                                    
                                                                                                    
                                                                                                    
                                                                                                    
                                                                                                    
                                                                                                    
                                                                                                    
                                                                                                    
                                                                                                    
                                                                                                    
                                                                                                    
                                                                                                    
                                                                                                    
                                                                                                    
                                                                                                    
                                                                                                    
                                                                                                    
                                                                                                    
                                                                                                    
                                                                                                    
                           
<?xpacket end="w"?></metadata>
<defs>
    <style>
      .cls-1 {
        fill: #c4a676;
        fill-rule: evenodd;
      }
    </style>
  </defs>
  <path id="Forma_1_copy" data-name="Forma 1 copy" class="cls-1" d="M1602.9,47.041l-3.02-4.111-0.9-5.059a3.657,3.657,0,0,0-3.05-3l-4.98-.722-4.14-2.927a3.53,3.53,0,0,0-3.51-.348,3.331,3.331,0,0,0-.72.432l-4.03,3.089-4.95.92a3.559,3.559,0,0,0-.8.25,3.7,3.7,0,0,0-2.13,2.869l-0.71,5.091-2.87,4.229a3.771,3.771,0,0,0,.09,4.327l3.02,4.111,0.9,5.059a3.645,3.645,0,0,0,3.05,3l4.98,0.722,4.14,2.927a3.578,3.578,0,0,0,3.51.349,3.757,3.757,0,0,0,.73-0.432l4.02-3.09,4.95-.92a3.637,3.637,0,0,0,2.93-3.12l0.71-5.091,2.87-4.228A3.771,3.771,0,0,0,1602.9,47.041Zm-17.86,16.036a13.523,13.523,0,1,1,13.23-13.52A13.389,13.389,0,0,1,1585.04,63.077Zm0-25.765a12.248,12.248,0,1,0,11.98,12.246A12.126,12.126,0,0,0,1585.04,37.312Zm0.69,11.132V48.418c-0.01.008-.01,0.017-0.02,0.026h0.02Zm2.42,1.3h-2.04v7.339h-3.01V49.746h-1.43V47.152h1.43V45.475a2.844,2.844,0,0,1,3.04-3.079l2.23,0.008v2.517h-1.62a0.62,0.62,0,0,0-.64.706v1.524h2.3Z" transform="translate(-1566.44 -30.563)"/>
</svg>
