<svg xmlns="http://www.w3.org/2000/svg" width="32" height="32" viewBox="0 0 37.19 37.969">
  <metadata><?xpacket begin="﻿" id="W5M0MpCehiHzreSzNTczkc9d"?>
<x:xmpmeta xmlns:x="adobe:ns:meta/" x:xmptk="Adobe XMP Core 5.6-c138 79.159824, 2016/09/14-01:09:01        ">
   <rdf:RDF xmlns:rdf="http://www.w3.org/1999/02/22-rdf-syntax-ns#">
      <rdf:Description rdf:about=""/>
   </rdf:RDF>
</x:xmpmeta>
                                                                                                    
                                                                                                    
                                                                                                    
                                                                                                    
                                                                                                    
                                                                                                    
                                                                                                    
                                                                                                    
                                                                                                    
                                                                                                    
                                                                                                    
                                                                                                    
                                                                                                    
                                                                                                    
                                                                                                    
                                                                                                    
                                                                                                    
                                                                                                    
                                                                                                    
                                                                                                    
                           
<?xpacket end="w"?></metadata>
<defs>
    <style>
      .cls-1 {
        fill: #c4a676;
        fill-rule: evenodd;
      }
    </style>
  </defs>
  <path id="Forma_1_copy_2" data-name="Forma 1 copy 2" class="cls-1" d="M1554.73,47.041l-3.02-4.111-0.9-5.059a3.657,3.657,0,0,0-3.05-3l-4.99-.722-4.13-2.927a3.53,3.53,0,0,0-3.51-.348,3.662,3.662,0,0,0-.73.432l-4.02,3.089-4.95.92a3.407,3.407,0,0,0-.8.25,3.734,3.734,0,0,0-2.14,2.869l-0.7,5.091-2.87,4.229a3.77,3.77,0,0,0,.08,4.327l3.03,4.111,0.9,5.059a3.645,3.645,0,0,0,3.05,3l4.98,0.722,4.14,2.927a3.578,3.578,0,0,0,3.51.349,3.411,3.411,0,0,0,.72-0.432l4.03-3.09,4.95-.92a3.637,3.637,0,0,0,2.93-3.12l0.71-5.091,2.86-4.228A3.754,3.754,0,0,0,1554.73,47.041Zm-17.86,16.036a13.523,13.523,0,1,1,13.23-13.52A13.389,13.389,0,0,1,1536.87,63.077Zm0-25.765a12.248,12.248,0,1,0,11.98,12.246A12.126,12.126,0,0,0,1536.87,37.312Zm0.69,11.132V48.418c-0.01.008-.01,0.017-0.02,0.026h0.02Zm-0.69,3.39a2.519,2.519,0,0,0,2.5-2.533,2.579,2.579,0,0,0-.47-1.477,2.507,2.507,0,0,0-2.03-1.057,2.48,2.48,0,0,0-2.03,1.056A2.529,2.529,0,0,0,1536.87,51.834Zm5.46-5.633V43.762h-0.31l-2.1.007,0.01,2.44Zm1.65,1.623v5.892a2.767,2.767,0,0,1-2.75,2.782h-8.72a2.767,2.767,0,0,1-2.75-2.782v-8.83a2.766,2.766,0,0,1,2.75-2.782h8.72a2.766,2.766,0,0,1,2.75,2.782v2.938Zm-3.22,1.477a3.89,3.89,0,1,1-7.78,0,4.013,4.013,0,0,1,.28-1.477h-2.12v5.892a1.37,1.37,0,0,0,1.36,1.378h8.73a1.37,1.37,0,0,0,1.36-1.378V47.824h-2.12A4.019,4.019,0,0,1,1540.76,49.3Z" transform="translate(-1518.28 -30.563)"/>
</svg>
