<svg xmlns="http://www.w3.org/2000/svg" width="32" height="32" viewBox="0 0 37.19 37.969">
  <metadata><?xpacket begin="﻿" id="W5M0MpCehiHzreSzNTczkc9d"?>
<x:xmpmeta xmlns:x="adobe:ns:meta/" x:xmptk="Adobe XMP Core 5.6-c138 79.159824, 2016/09/14-01:09:01        ">
   <rdf:RDF xmlns:rdf="http://www.w3.org/1999/02/22-rdf-syntax-ns#">
      <rdf:Description rdf:about=""/>
   </rdf:RDF>
</x:xmpmeta>
                                                                                                    
                                                                                                    
                                                                                                    
                                                                                                    
                                                                                                    
                                                                                                    
                                                                                                    
                                                                                                    
                                                                                                    
                                                                                                    
                                                                                                    
                                                                                                    
                                                                                                    
                                                                                                    
                                                                                                    
                                                                                                    
                                                                                                    
                                                                                                    
                                                                                                    
                                                                                                    
                           
<?xpacket end="w"?></metadata>
<defs>
    <style>
      .cls-1 {
        fill: #c4a676;
        fill-rule: evenodd;
      }
    </style>
  </defs>
  <path id="Forma_1_copy_9" data-name="Forma 1 copy 9" class="cls-1" d="M1650.9,47.041l-3.02-4.111-0.9-5.059a3.657,3.657,0,0,0-3.05-3l-4.98-.722-4.14-2.927a3.53,3.53,0,0,0-3.51-.348,3.662,3.662,0,0,0-.73.432l-4.02,3.089-4.95.92a3.633,3.633,0,0,0-2.93,3.119l-0.71,5.091-2.87,4.229a3.771,3.771,0,0,0,.09,4.327l3.02,4.111,0.9,5.059a3.645,3.645,0,0,0,3.05,3l4.98,0.722,4.14,2.927a3.578,3.578,0,0,0,3.51.349,3.757,3.757,0,0,0,.73-0.432l4.02-3.09,4.95-.92a3.637,3.637,0,0,0,2.93-3.12l0.71-5.091,2.86-4.228A3.754,3.754,0,0,0,1650.9,47.041Zm-17.86,16.036a13.523,13.523,0,1,1,13.23-13.52A13.389,13.389,0,0,1,1633.04,63.077Zm0-25.765a12.248,12.248,0,1,0,11.98,12.246A12.126,12.126,0,0,0,1633.04,37.312Zm0.69,11.132V48.418c-0.01.008-.01,0.017-0.02,0.026h0.02Zm8.26-.467q-0.015-.548-0.09-1.386a13.552,13.552,0,0,0-.21-1.5,2.377,2.377,0,0,0-.7-1.249,2.151,2.151,0,0,0-1.25-.589,89.622,89.622,0,0,0-13.48,0,2.123,2.123,0,0,0-1.25.589,2.43,2.43,0,0,0-.69,1.249,11.322,11.322,0,0,0-.23,1.5c-0.05.558-.07,1.02-0.08,1.386s-0.01.873-.01,1.523,0,1.157.01,1.523,0.03,0.828.08,1.386a13.417,13.417,0,0,0,.22,1.5,2.377,2.377,0,0,0,.7,1.249,2.12,2.12,0,0,0,1.25.589A65.145,65.145,0,0,0,1633,56a65.145,65.145,0,0,0,6.74-.254,2.093,2.093,0,0,0,1.24-.589,2.378,2.378,0,0,0,.7-1.249,11.431,11.431,0,0,0,.22-1.5q0.075-.837.09-1.386c0.01-.365.01-0.873,0.01-1.523S1642,48.342,1641.99,47.977Zm-5.44,2.071-5.14,3.249a0.562,0.562,0,0,1-.34.1,0.7,0.7,0,0,1-.31-0.081,0.606,0.606,0,0,1-.33-0.569v-6.5a0.606,0.606,0,0,1,.33-0.568,0.594,0.594,0,0,1,.65.02l5.14,3.249A0.64,0.64,0,0,1,1636.55,50.048Z" transform="translate(-1614.44 -30.563)"/>
</svg>
